<?xml version="1.0" encoding="UTF-8" standalone="no"?>
<!DOCTYPE svg PUBLIC "-//W3C//DTD SVG 1.1//EN"
"http://www.w3.org/Graphics/SVG/1.1/DTD/svg11.dtd">
<svg viewBox="0 0 909 1286" version="1.1" xmlns="http://www.w3.org/2000/svg" xmlns:xlink="http://www.w3.org/1999/xlink">
<defs>
<style type="text/css"><![CDATA[
.g0_81{
fill: #EEEEEE;
}
]]></style>
</defs>
<g fill="#D4D4D4" fill-opacity="0.25" >
<use xlink:href="#f0_1f" transform="matrix(65.1,-65.1,65.1,65.1,142.8,1093.7)" />
<use xlink:href="#f0_2a" transform="matrix(65.1,-65.1,65.1,65.1,220.1,1016.4)" />
<use xlink:href="#f0_28" transform="matrix(65.1,-65.1,65.1,65.1,275.4,961.1)" />
<use xlink:href="#f0_25" transform="matrix(65.1,-65.1,65.1,65.1,297.5,939)" />
<use xlink:href="#f0_2a" transform="matrix(65.1,-65.1,65.1,65.1,319.5,917)" />
<use xlink:href="#f0_21" transform="matrix(65.1,-65.1,65.1,65.1,374.8,861.7)" />
<use xlink:href="#f0_2k" transform="matrix(65.1,-65.1,65.1,65.1,430,806.5)" />
<use xlink:href="#f0_1x" transform="matrix(65.1,-65.1,65.1,65.1,479.7,756.8)" />
<use xlink:href="#f0_29" transform="matrix(65.1,-65.1,65.1,65.1,535,701.5)" />
<use xlink:href="#f0_2c" transform="matrix(65.1,-65.1,65.1,65.1,617.8,618.7)" />
<use xlink:href="#f0_2b" transform="matrix(65.1,-65.1,65.1,65.1,673,563.5)" />
<use xlink:href="#f0_25" transform="matrix(65.1,-65.1,65.1,65.1,728.3,508.2)" />
<use xlink:href="#f0_2a" transform="matrix(65.1,-65.1,65.1,65.1,750.4,486.1)" />
<use xlink:href="#f0_2g" transform="matrix(65.1,-65.1,65.1,65.1,805.6,430.9)" />
</g>
<path d="M47.4,861.7H861.7v1.5H47.4v-1.5Z" class="g0_81" />
<image preserveAspectRatio="none" x="47" y="113" width="651" height="478" xlink:href="img/1.png" />
<g fill="#000000" >
<use xlink:href="#f1_o" transform="matrix(12,0,0,12,47.4,632.5)" />
<use xlink:href="#f1_7" transform="matrix(12,0,0,12,59.4,632.5)" />
<use xlink:href="#f1_4" transform="matrix(12,0,0,12,69.7,632.5)" />
<use xlink:href="#f1_5" transform="matrix(12,0,0,12,76.1,632.5)" />
<use xlink:href="#f1_f" transform="matrix(12,0,0,12,82,632.5)" />
<use xlink:href="#f1_j" transform="matrix(12,0,0,12,92.5,632.5)" />
<use xlink:href="#f1_p" transform="matrix(12,0,0,12,109.1,632.5)" />
<use xlink:href="#f1_q" transform="matrix(12,0,0,12,114.4,632.5)" />
<use xlink:href="#f1_r" transform="matrix(12,0,0,12,124.8,632.5)" />
<use xlink:href="#f1_7" transform="matrix(12,0,0,12,136.8,632.5)" />
<use xlink:href="#f1_c" transform="matrix(12,0,0,12,147.1,632.5)" />
<use xlink:href="#f1_s" transform="matrix(12,0,0,12,155.7,632.5)" />
<use xlink:href="#f1_5" transform="matrix(12,0,0,12,166.4,632.5)" />
<use xlink:href="#f1_j" transform="matrix(12,0,0,12,172.3,632.5)" />
<use xlink:href="#f1_t" transform="matrix(12,0,0,12,184.1,632.5)" />
<use xlink:href="#f1_u" transform="matrix(12,0,0,12,198.7,632.5)" />
<use xlink:href="#f1_d" transform="matrix(12,0,0,12,217.1,632.5)" />
<use xlink:href="#f1_c" transform="matrix(12,0,0,12,226.9,632.5)" />
<use xlink:href="#f1_d" transform="matrix(12,0,0,12,235.5,632.5)" />
<use xlink:href="#f1_e" transform="matrix(12,0,0,12,245.3,632.5)" />
<use xlink:href="#f1_4" transform="matrix(12,0,0,12,254.3,632.5)" />
<use xlink:href="#f1_v" transform="matrix(12,0,0,12,265.5,632.5)" />
<use xlink:href="#f1_w" transform="matrix(12,0,0,12,280.5,632.5)" />
<use xlink:href="#f1_r" transform="matrix(12,0,0,12,47.4,682.9)" />
<use xlink:href="#f1_7" transform="matrix(12,0,0,12,59.3,682.9)" />
<use xlink:href="#f1_c" transform="matrix(12,0,0,12,69.7,682.9)" />
<use xlink:href="#f1_s" transform="matrix(12,0,0,12,78.3,682.9)" />
<use xlink:href="#f1_5" transform="matrix(12,0,0,12,89,682.9)" />
<use xlink:href="#f1_j" transform="matrix(12,0,0,12,94.8,682.9)" />
<use xlink:href="#f1_t" transform="matrix(12,0,0,12,106.7,682.9)" />
<use xlink:href="#f1_u" transform="matrix(12,0,0,12,121.3,682.9)" />
<use xlink:href="#f1_8" transform="matrix(12,0,0,12,139.6,682.9)" />
<use xlink:href="#f1_c" transform="matrix(12,0,0,12,150.9,682.9)" />
<use xlink:href="#f1_f" transform="matrix(12,0,0,12,159.5,682.9)" />
<use xlink:href="#f1_f" transform="matrix(12,0,0,12,170.1,682.9)" />
<use xlink:href="#f1_k" transform="matrix(12,0,0,12,180.6,682.9)" />
<use xlink:href="#f1_5" transform="matrix(12,0,0,12,191.9,682.9)" />
<use xlink:href="#f1_j" transform="matrix(12,0,0,12,197.7,682.9)" />
<use xlink:href="#f1_t" transform="matrix(12,0,0,12,209.5,682.9)" />
<use xlink:href="#f1_v" transform="matrix(12,0,0,12,224.2,682.9)" />
<use xlink:href="#f1_x" transform="matrix(12,0,0,12,234.4,682.9)" />
<use xlink:href="#f1_y" transform="matrix(12,0,0,12,47.4,733.3)" />
<use xlink:href="#f1_5" transform="matrix(12,0,0,12,57.3,733.3)" />
<use xlink:href="#f1_g" transform="matrix(12,0,0,12,63.2,733.3)" />
<use xlink:href="#f1_d" transform="matrix(12,0,0,12,68.8,733.3)" />
<use xlink:href="#f1_j" transform="matrix(12,0,0,12,78.7,733.3)" />
<use xlink:href="#f1_4" transform="matrix(12,0,0,12,90.5,733.3)" />
<use xlink:href="#f1_u" transform="matrix(12,0,0,12,101.7,733.3)" />
<use xlink:href="#f1_d" transform="matrix(12,0,0,12,120,733.3)" />
<use xlink:href="#f1_c" transform="matrix(12,0,0,12,129.8,733.3)" />
<use xlink:href="#f1_d" transform="matrix(12,0,0,12,138.5,733.3)" />
<use xlink:href="#f1_e" transform="matrix(12,0,0,12,148.3,733.3)" />
<use xlink:href="#f1_4" transform="matrix(12,0,0,12,157.3,733.3)" />
<use xlink:href="#f1_v" transform="matrix(12,0,0,12,168.5,733.3)" />
<use xlink:href="#f1_x" transform="matrix(12,0,0,12,183.5,733.3)" />
<use xlink:href="#f1_y" transform="matrix(12,0,0,12,47.4,783.8)" />
<use xlink:href="#f1_5" transform="matrix(12,0,0,12,57.3,783.8)" />
<use xlink:href="#f1_g" transform="matrix(12,0,0,12,63.2,783.8)" />
<use xlink:href="#f1_d" transform="matrix(12,0,0,12,68.8,783.8)" />
<use xlink:href="#f1_j" transform="matrix(12,0,0,12,78.7,783.8)" />
<use xlink:href="#f1_4" transform="matrix(12,0,0,12,90.5,783.8)" />
<use xlink:href="#f1_u" transform="matrix(12,0,0,12,101.7,783.8)" />
<use xlink:href="#f1_8" transform="matrix(12,0,0,12,120,783.8)" />
<use xlink:href="#f1_c" transform="matrix(12,0,0,12,131.3,783.8)" />
<use xlink:href="#f1_f" transform="matrix(12,0,0,12,139.9,783.8)" />
<use xlink:href="#f1_f" transform="matrix(12,0,0,12,150.5,783.8)" />
<use xlink:href="#f1_k" transform="matrix(12,0,0,12,161,783.8)" />
<use xlink:href="#f1_5" transform="matrix(12,0,0,12,172.3,783.8)" />
<use xlink:href="#f1_j" transform="matrix(12,0,0,12,178.1,783.8)" />
<use xlink:href="#f1_t" transform="matrix(12,0,0,12,189.9,783.8)" />
<use xlink:href="#f1_v" transform="matrix(12,0,0,12,204.6,783.8)" />
<use xlink:href="#f1_z" transform="matrix(12,0,0,12,214.8,783.8)" />
<use xlink:href="#f1_i" transform="matrix(12,0,0,12,47.4,834.2)" />
<use xlink:href="#f1_9" transform="matrix(12,0,0,12,58.4,834.2)" />
<use xlink:href="#f1_d" transform="matrix(12,0,0,12,70,834.2)" />
<use xlink:href="#f1_j" transform="matrix(12,0,0,12,79.9,834.2)" />
<use xlink:href="#f1_f" transform="matrix(12,0,0,12,91.7,834.2)" />
<use xlink:href="#f1_4" transform="matrix(12,0,0,12,102.2,834.2)" />
<use xlink:href="#f1_a" transform="matrix(12,0,0,12,108.7,834.2)" />
<use xlink:href="#f1_k" transform="matrix(12,0,0,12,119,834.2)" />
<use xlink:href="#f1_5" transform="matrix(12,0,0,12,130.3,834.2)" />
<use xlink:href="#f1_e" transform="matrix(12,0,0,12,136.1,834.2)" />
<use xlink:href="#f1_c" transform="matrix(12,0,0,12,149.9,834.2)" />
<use xlink:href="#f1_7" transform="matrix(12,0,0,12,158.5,834.2)" />
<use xlink:href="#f1_4" transform="matrix(12,0,0,12,168.8,834.2)" />
<use xlink:href="#f1_5" transform="matrix(12,0,0,12,175.3,834.2)" />
<use xlink:href="#f1_f" transform="matrix(12,0,0,12,181.1,834.2)" />
<use xlink:href="#f1_v" transform="matrix(12,0,0,12,196.4,834.2)" />
<use xlink:href="#f1_w" transform="matrix(12,0,0,12,211.4,834.2)" />
<use xlink:href="#f1_p" transform="matrix(12,0,0,12,226.4,834.2)" />
<use xlink:href="#f1_x" transform="matrix(12,0,0,12,236.4,834.2)" />
<use xlink:href="#f1_p" transform="matrix(12,0,0,12,251.4,834.2)" />
<use xlink:href="#f1_x" transform="matrix(12,0,0,12,261.4,834.2)" />
<use xlink:href="#f1_p" transform="matrix(12,0,0,12,276.4,834.2)" />
<use xlink:href="#f1_z" transform="matrix(12,0,0,12,286.4,834.2)" />
<use xlink:href="#f2_1e" transform="matrix(12,0,0,12,47.4,904.4)" />
<use xlink:href="#f2_n" transform="matrix(12,0,0,12,57.6,904.4)" />
<use xlink:href="#f2_1f" transform="matrix(12,0,0,12,67.9,904.4)" />
<use xlink:href="#f2_7" transform="matrix(12,0,0,12,82,904.4)" />
<use xlink:href="#f2_e" transform="matrix(12,0,0,12,88.4,904.4)" />
<use xlink:href="#f2_e" transform="matrix(12,0,0,12,95.9,904.4)" />
<use xlink:href="#f2_5" transform="matrix(12,0,0,12,103.3,904.4)" />
<use xlink:href="#f2_6" transform="matrix(12,0,0,12,113.8,904.4)" />
<use xlink:href="#f2_5" transform="matrix(12,0,0,12,123.3,904.4)" />
<use xlink:href="#f2_d" transform="matrix(12,0,0,12,133.8,904.4)" />
<use xlink:href="#f2_4" transform="matrix(12,0,0,12,146,904.4)" />
<use xlink:href="#f2_7" transform="matrix(12,0,0,12,153.4,904.4)" />
<use xlink:href="#f2_3" transform="matrix(12,0,0,12,159.9,904.4)" />
<use xlink:href="#f2_4" transform="matrix(12,0,0,12,170.8,904.4)" />
<use xlink:href="#f2_5" transform="matrix(12,0,0,12,178.2,904.4)" />
<use xlink:href="#f2_14" transform="matrix(12,0,0,12,193.5,904.4)" />
<use xlink:href="#f2_5" transform="matrix(12,0,0,12,205.3,904.4)" />
<use xlink:href="#f2_4" transform="matrix(12,0,0,12,215.8,904.4)" />
<use xlink:href="#f2_c" transform="matrix(12,0,0,12,223.2,904.4)" />
<use xlink:href="#f2_5" transform="matrix(12,0,0,12,238.9,904.4)" />
<use xlink:href="#f2_5" transform="matrix(12,0,0,12,249.3,904.4)" />
<use xlink:href="#f2_d" transform="matrix(12,0,0,12,259.8,904.4)" />
<use xlink:href="#f2_a" transform="matrix(12,0,0,12,276.8,904.4)" />
<use xlink:href="#f2_b" transform="matrix(12,0,0,12,288.7,904.4)" />
<use xlink:href="#f2_f" transform="matrix(12,0,0,12,299.9,904.4)" />
<use xlink:href="#f2_7" transform="matrix(12,0,0,12,317.9,904.4)" />
<use xlink:href="#f2_d" transform="matrix(12,0,0,12,324.4,904.4)" />
<use xlink:href="#f2_3" transform="matrix(12,0,0,12,336.6,904.4)" />
<use xlink:href="#f2_d" transform="matrix(12,0,0,12,347.6,904.4)" />
<use xlink:href="#f2_o" transform="matrix(12,0,0,12,359.8,904.4)" />
<use xlink:href="#f2_5" transform="matrix(12,0,0,12,369.5,904.4)" />
<use xlink:href="#f2_16" transform="matrix(12,0,0,12,379.9,904.4)" />
<use xlink:href="#f2_o" transform="matrix(12,0,0,12,390,904.4)" />
<use xlink:href="#f2_b" transform="matrix(12,0,0,12,399.7,904.4)" />
<use xlink:href="#f2_1g" transform="matrix(12,0,0,12,410.9,904.4)" />
<use xlink:href="#f2_a" transform="matrix(12,0,0,12,416.6,904.4)" />
<use xlink:href="#f2_b" transform="matrix(12,0,0,12,428.5,904.4)" />
<use xlink:href="#f2_f" transform="matrix(12,0,0,12,439.7,904.4)" />
<use xlink:href="#f2_7" transform="matrix(12,0,0,12,457.8,904.4)" />
<use xlink:href="#f2_d" transform="matrix(12,0,0,12,464.2,904.4)" />
<use xlink:href="#f2_3" transform="matrix(12,0,0,12,476.4,904.4)" />
<use xlink:href="#f2_d" transform="matrix(12,0,0,12,487.4,904.4)" />
<use xlink:href="#f2_o" transform="matrix(12,0,0,12,499.6,904.4)" />
<use xlink:href="#f2_5" transform="matrix(12,0,0,12,509.3,904.4)" />
<use xlink:href="#f2_1c" transform="matrix(12,0,0,12,524.5,904.4)" />
<use xlink:href="#f2_u" transform="matrix(12,0,0,12,543.9,904.4)" />
<use xlink:href="#f2_d" transform="matrix(12,0,0,12,551.2,904.4)" />
<use xlink:href="#f2_o" transform="matrix(12,0,0,12,563.5,904.4)" />
<use xlink:href="#f2_b" transform="matrix(12,0,0,12,573.1,904.4)" />
<use xlink:href="#f2_f" transform="matrix(12,0,0,12,584.3,904.4)" />
<use xlink:href="#f2_v" transform="matrix(12,0,0,12,602.4,904.4)" />
<use xlink:href="#f2_8" transform="matrix(12,0,0,12,614.2,904.4)" />
<use xlink:href="#f2_5" transform="matrix(12,0,0,12,620.7,904.4)" />
<use xlink:href="#f2_4" transform="matrix(12,0,0,12,631.1,904.4)" />
<use xlink:href="#f2_5" transform="matrix(12,0,0,12,638.5,904.4)" />
<use xlink:href="#f2_a" transform="matrix(12,0,0,12,653.7,904.4)" />
<use xlink:href="#f2_b" transform="matrix(12,0,0,12,665.6,904.4)" />
<use xlink:href="#f2_f" transform="matrix(12,0,0,12,676.8,904.4)" />
<use xlink:href="#f2_7" transform="matrix(12,0,0,12,694.9,904.4)" />
<use xlink:href="#f2_d" transform="matrix(12,0,0,12,701.3,904.4)" />
<use xlink:href="#f2_3" transform="matrix(12,0,0,12,713.6,904.4)" />
<use xlink:href="#f2_d" transform="matrix(12,0,0,12,724.5,904.4)" />
<use xlink:href="#f2_o" transform="matrix(12,0,0,12,736.8,904.4)" />
<use xlink:href="#f2_5" transform="matrix(12,0,0,12,746.4,904.4)" />
<use xlink:href="#f2_c" transform="matrix(12,0,0,12,761.6,904.4)" />
<use xlink:href="#f2_7" transform="matrix(12,0,0,12,777.3,904.4)" />
<use xlink:href="#f2_4" transform="matrix(12,0,0,12,783.8,904.4)" />
<use xlink:href="#f2_x" transform="matrix(12,0,0,12,791.2,904.4)" />
<use xlink:href="#f2_b" transform="matrix(12,0,0,12,808.1,904.4)" />
<use xlink:href="#f2_d" transform="matrix(12,0,0,12,819.3,904.4)" />
<use xlink:href="#f2_5" transform="matrix(12,0,0,12,831.6,904.4)" />
<use xlink:href="#f2_5" transform="matrix(12,0,0,12,47.4,936.5)" />
<use xlink:href="#f2_1d" transform="matrix(12,0,0,12,57.8,936.5)" />
<use xlink:href="#f2_3" transform="matrix(12,0,0,12,69.7,936.5)" />
<use xlink:href="#f2_f" transform="matrix(12,0,0,12,80.6,936.5)" />
<use xlink:href="#f2_v" transform="matrix(12,0,0,12,98.7,936.5)" />
<use xlink:href="#f2_8" transform="matrix(12,0,0,12,110.5,936.5)" />
<use xlink:href="#f2_5" transform="matrix(12,0,0,12,117,936.5)" />
<use xlink:href="#f2_5" transform="matrix(12,0,0,12,132.2,936.5)" />
<use xlink:href="#f2_3" transform="matrix(12,0,0,12,142.6,936.5)" />
<use xlink:href="#f2_o" transform="matrix(12,0,0,12,153.6,936.5)" />
<use xlink:href="#f2_x" transform="matrix(12,0,0,12,163.3,936.5)" />
<use xlink:href="#f2_n" transform="matrix(12,0,0,12,175.5,936.5)" />
<use xlink:href="#f3_l" transform="matrix(8,0,0,8,785.4,1275.3)" />
<use xlink:href="#f3_o" transform="matrix(8,0,0,8,792.2,1275.3)" />
</g>
<g fill="#0080FF" fill-opacity="0.5" >
<use xlink:href="#f0_1c" transform="matrix(47.4,0,0,47.4,227.3,1273.3)" />
<use xlink:href="#f0_21" transform="matrix(47.4,0,0,47.4,267.5,1273.3)" />
<use xlink:href="#f0_1x" transform="matrix(47.4,0,0,47.4,307.8,1273.3)" />
<use xlink:href="#f0_2e" transform="matrix(47.4,0,0,47.4,348,1273.3)" />
<use xlink:href="#f0_2a" transform="matrix(47.4,0,0,47.4,372.1,1273.3)" />
<use xlink:href="#f0_17" transform="matrix(47.4,0,0,47.4,412.3,1273.3)" />
<use xlink:href="#f0_2h" transform="matrix(47.4,0,0,47.4,468.7,1273.3)" />
<use xlink:href="#f0_25" transform="matrix(47.4,0,0,47.4,508.9,1273.3)" />
<use xlink:href="#f0_20" transform="matrix(47.4,0,0,47.4,525,1273.3)" />
<use xlink:href="#f0_21" transform="matrix(47.4,0,0,47.4,565.2,1273.3)" />
<use xlink:href="#f0_i" transform="matrix(47.4,0,0,47.4,605.5,1273.3)" />
<use xlink:href="#f0_25" transform="matrix(47.4,0,0,47.4,625.6,1273.3)" />
<use xlink:href="#f0_2a" transform="matrix(47.4,0,0,47.4,641.7,1273.3)" />
</g>
<defs>
<path d="M593,101c0,0,182,0,279,112c0,0,98,113,98,318c0,0,0,196,-98,308c0,0,-98,112,-277,112c0,0,-181,0,-279,-110c0,0,-99,-111,-99,-310c0,0,0,-198,100,-314c0,0,99,-116,276,-116Zm0,-115c0,0,-162,0,-279,65c0,0,-118,66,-180,190c0,0,-62,124,-62,290c0,0,0,252,138,394c0,0,138,142,385,142c0,0,160,0,278,-64c0,0,118,-64,180,-185c0,0,62,-122,62,-287c0,0,0,-165,-63,-289c0,0,-63,-124,-181,-190c0,0,-118,-66,-278,-66Z" 
id="f0_1f"
transform="scale(0.001,-0.001)" />

<path d="M106,0V635c0,0,0,141,-5,173H228c0,0,1,-4,2,-21c0,0,1,-16,2,-37c0,0,1,-22,2,-81h2c0,0,47,84,108,119c0,0,60,34,151,34c0,0,132,0,194,-66c0,0,61,-66,61,-218V0H615V512c0,0,0,80,-15,124c0,0,-16,44,-50,63c0,0,-35,20,-101,20c0,0,-97,0,-153,-67c0,0,-56,-66,-56,-184V0Z" 
id="f0_2a"
transform="scale(0.001,-0.001)" />

<path d="M103,0V1107H237V0Z" 
id="f0_28"
transform="scale(0.001,-0.001)" />

<path d="M102,0V808H236V0Zm0,979v128H236V979Z" 
id="f0_25"
transform="scale(0.001,-0.001)" />

<path d="M643,478c0,0,-11,128,-65,187c0,0,-54,59,-154,59c0,0,-98,0,-155,-66c0,0,-57,-65,-62,-180ZM431,-14c0,0,-179,0,-272,106c0,0,-94,107,-94,317c0,0,0,200,94,307c0,0,93,106,267,106c0,0,356,0,356,-429V375H206c0,0,0,-138,57,-213c0,0,58,-75,168,-75c0,0,87,0,140,35c0,0,53,35,71,88L760,177c0,0,-72,-191,-329,-191Z" 
id="f0_21"
transform="scale(0.001,-0.001)" />

<path d="M17,0L304,415L31,808H179L380,493L580,808H730L457,417L747,0H598L380,331L162,0Z" 
id="f0_2k"
transform="scale(0.001,-0.001)" />

<path d="M339,87c0,0,74,0,132,34c0,0,57,33,90,91c0,0,34,59,34,121v66L448,396c0,0,-95,-2,-144,-19c0,0,-49,-18,-75,-55c0,0,-26,-38,-26,-98c0,0,0,-65,35,-101c0,0,36,-36,101,-36ZM309,-14c0,0,-122,0,-183,64c0,0,-61,64,-61,176c0,0,0,125,82,192c0,0,83,67,266,72l182,3v44c0,0,0,98,-42,141c0,0,-42,43,-132,43c0,0,-90,0,-131,-31c0,0,-41,-31,-49,-98L101,604c0,0,34,218,323,218c0,0,153,0,229,-70c0,0,77,-69,77,-202V202c0,0,0,-59,16,-90c0,0,16,-30,60,-30c0,0,19,0,44,5V4C850,4,799,-7,746,-7c0,0,-75,0,-109,38c0,0,-33,40,-38,124h-4C595,155,543,62,475,24c0,0,-68,-38,-166,-38Z" 
id="f0_1x"
transform="scale(0.001,-0.001)" />

<path d="M106,0V635c0,0,0,141,-5,173H228c0,0,1,-4,2,-21c0,0,1,-16,2,-37c0,0,1,-22,2,-81h2c0,0,44,86,100,120c0,0,56,33,136,33c0,0,92,0,145,-36c0,0,54,-37,75,-117h2c0,0,42,82,101,117c0,0,59,36,143,36c0,0,123,0,178,-66c0,0,56,-67,56,-218V0H1039V512c0,0,0,117,-32,162c0,0,-32,45,-116,45c0,0,-88,0,-136,-66c0,0,-49,-65,-49,-185V0H573V512c0,0,0,117,-32,162c0,0,-32,45,-116,45c0,0,-86,0,-136,-66c0,0,-50,-66,-50,-185V0Z" 
id="f0_29"
transform="scale(0.001,-0.001)" />

<path d="M453,84c0,0,100,0,146,74c0,0,46,73,46,247c0,0,0,169,-46,241c0,0,-45,73,-145,73c0,0,-80,0,-125,-34c0,0,-45,-34,-68,-105c0,0,-24,-71,-24,-186c0,0,0,-159,51,-234c0,0,51,-76,165,-76ZM103,-316V643c0,0,0,124,-5,165H228c0,0,1,-3,3,-22c0,0,1,-18,3,-56c0,0,2,-38,2,-52h3c0,0,36,75,94,110c0,0,59,34,156,34c0,0,149,0,223,-100c0,0,74,-100,74,-314c0,0,0,-422,-297,-422c0,0,-187,0,-251,140h-4c0,0,3,-6,3,-126V-316Z" 
id="f0_2c"
transform="scale(0.001,-0.001)" />

<path d="M420,84c0,0,121,0,173,78c0,0,52,77,52,243c0,0,0,167,-50,243c0,0,-50,76,-167,76c0,0,-118,0,-170,-78c0,0,-53,-77,-53,-241c0,0,0,-160,52,-241c0,0,52,-80,163,-80Zm1,-98c0,0,-176,0,-267,107c0,0,-90,108,-90,312c0,0,0,417,362,417c0,0,185,0,272,-102c0,0,88,-101,88,-315c0,0,0,-212,-94,-316C692,89,599,-14,421,-14Z" 
id="f0_2b"
transform="scale(0.001,-0.001)" />

<path d="M278,-11c0,0,-162,0,-162,182V710H23v98h99l39,181h90V808H400V710H251V200c0,0,0,-58,19,-82c0,0,19,-23,66,-23c0,0,27,0,77,10V6c0,0,-66,-17,-135,-17Z" 
id="f0_2g"
transform="scale(0.001,-0.001)" />

<path d="M465,553c0,0,67,0,112,15c0,0,44,14,71,44c0,0,26,30,39,75c0,0,11,45,11,104c0,0,-1,61,-12,105c0,0,-14,42,-41,70c0,0,-29,27,-74,40c0,0,-46,12,-110,12H357V553ZM982,0C963,0,909,0,873,5c0,0,-46,5,-79,20c0,0,-32,15,-54,42c0,0,-24,26,-49,70L484,481H357V166c0,0,0,-33,11,-53c0,0,9,-22,27,-32c0,0,16,-10,40,-13c0,0,22,-4,48,-4h20V0H58V64H78c0,0,24,0,48,4c0,0,22,3,40,13c0,0,16,10,27,32c0,0,10,20,10,53V923c0,0,0,33,-10,54c0,0,-11,20,-27,32c0,0,-18,11,-40,14c0,0,-24,3,-48,3H58v65H469c0,0,198,-1,296,-73c0,0,97,-74,97,-222c0,0,-1,-62,-20,-107c0,0,-20,-46,-52,-80c0,0,-33,-33,-72,-55c0,0,-41,-23,-81,-36L847,186c0,0,38,-61,75,-91c0,0,37,-31,85,-31h5V0H990c0,0,-3,0,-8,0Z" 
id="f1_o"
transform="scale(0.001,-0.001)" />

<path d="M348,79c0,0,46,0,85,15c0,0,36,14,64,42c0,0,25,27,40,66c0,0,14,39,14,87V412H454c0,0,-65,0,-109,-14c0,0,-44,-13,-70,-36c0,0,-27,-25,-39,-59c0,0,-12,-35,-11,-80c0,0,0,-73,30,-108c0,0,29,-36,93,-36ZM313,-14c0,0,-50,0,-94,14c0,0,-44,14,-75,45c0,0,-33,30,-50,77c0,0,-18,47,-18,109c0,0,0,123,87,182c0,0,85,59,261,60H551v93c0,0,0,42,-4,78c0,0,-5,34,-20,60c0,0,-15,26,-42,40c0,0,-28,14,-75,14c0,0,-44,0,-71,-12c0,0,-29,-13,-43,-35c0,0,-16,-23,-21,-53c0,0,-6,-31,-5,-66c0,0,-64,0,-96,21c0,0,-34,21,-34,75c0,0,0,39,22,67c0,0,21,28,60,45c0,0,36,17,87,26c0,0,49,7,107,8c0,0,69,0,122,-13c0,0,52,-15,87,-46c0,0,34,-31,53,-81c0,0,17,-52,17,-124V174c0,0,0,-33,5,-53c0,0,6,-22,17,-34c0,0,10,-12,30,-18c0,0,15,-5,38,-5c2,0,3,0,5,0h4V0H588L564,131H551c0,0,-24,-33,-46,-59c0,0,-22,-27,-49,-46C456,26,429,6,395,-3c0,0,-35,-11,-82,-11Z" 
id="f1_7"
transform="scale(0.001,-0.001)" />

<path d="M367,-14c0,0,-59,0,-100,13c0,0,-42,10,-69,38c0,0,-27,27,-39,73c0,0,-14,45,-14,112V732H29v61c0,0,28,0,61,11c0,0,32,11,58,37c0,0,26,28,43,68c0,0,15,38,28,98h70V819H489V732H289V217c0,0,-1,-78,32,-115c0,0,30,-36,83,-36c0,0,1,0,1,0c0,0,2,0,6,0c9,0,28,0,45,3c0,0,23,3,47,7V9C503,9,492,4,477,0c0,0,-15,-3,-33,-6c0,0,-20,-5,-39,-6c0,0,-20,-2,-38,-2Z" 
id="f1_4"
transform="scale(0.001,-0.001)" />

<path d="M35,0V64H55c0,0,25,0,49,4c0,0,22,3,39,13c0,0,17,10,28,32c0,0,10,20,10,53V650c0,0,0,33,-10,55c0,0,-11,20,-28,31c0,0,-17,11,-39,15c0,0,-24,3,-49,4H51v64H324V174c0,0,0,-37,10,-58c0,0,10,-21,27,-32c0,0,16,-13,40,-16c0,0,22,-4,48,-4h20V0ZM249,972c-1,0,-2,0,-3,0c0,0,-1,0,-2,0c-5,0,-20,0,-32,5c0,0,-16,5,-28,16c0,0,-12,11,-18,29c0,0,-7,18,-7,45c0,0,0,27,7,45c0,0,6,17,18,29c0,0,12,11,28,15c0,0,15,5,34,5c0,0,18,0,34,-5c0,0,15,-4,27,-15c0,0,11,-12,19,-29c0,0,7,-18,7,-45c0,0,0,-27,-7,-45c0,0,-8,-18,-19,-29c0,0,-12,-11,-27,-16c0,0,-14,-5,-31,-5Z" 
id="f1_5"
transform="scale(0.001,-0.001)" />

<path d="M442,64c0,0,56,0,97,23c0,0,38,22,64,66c0,0,24,43,36,108c0,0,9,65,10,150c0,0,0,85,-11,149c0,0,-11,64,-36,108c0,0,-25,42,-64,64c0,0,-41,21,-98,21c0,0,-58,0,-97,-21c0,0,-39,-22,-64,-64c0,0,-25,-44,-36,-108c0,0,-11,-64,-11,-149c0,0,0,-85,11,-150c0,0,11,-65,37,-108c0,0,24,-44,65,-66c0,0,38,-23,97,-23Zm-3,-78c0,0,-83,0,-149,25c0,0,-66,26,-111,79c0,0,-47,52,-70,134c0,0,-25,79,-25,187c0,0,0,213,91,319c0,0,90,103,268,104c0,0,82,0,149,-25c0,0,65,-26,111,-79c0,0,46,-53,71,-132c0,0,23,-80,23,-187c0,0,0,-216,-91,-321C706,90,614,-14,439,-14Z" 
id="f1_f"
transform="scale(0.001,-0.001)" />

<path d="M43,0V64H55c0,0,26,0,49,4c0,0,23,3,40,16c0,0,16,11,27,32c0,0,10,21,10,58V650c0,0,0,33,-10,55c0,0,-11,20,-28,31c0,0,-17,11,-39,15c0,0,-24,3,-49,4H51v64H298L318,695h7c0,0,23,42,51,70c0,0,25,27,56,43c0,0,29,14,63,21c0,0,32,5,69,5c0,0,60,-1,108,-17c0,0,47,-18,81,-54c0,0,32,-37,50,-93c0,0,17,-58,18,-135V174c0,0,0,-37,9,-58c0,0,7,-21,23,-32c0,0,16,-13,38,-16c0,0,21,-4,47,-4h5V0H677V527c0,0,0,50,-9,89c0,0,-10,39,-29,66c0,0,-20,26,-52,41c0,0,-33,13,-78,13c0,0,-53,0,-88,-20c0,0,-36,-20,-57,-54c0,0,-22,-35,-31,-79c0,0,-10,-45,-9,-94V166c0,0,0,-33,10,-53c0,0,10,-22,27,-32c0,0,16,-10,40,-13c0,0,22,-4,48,-4h5V0Z" 
id="f1_j"
transform="scale(0.001,-0.001)" />

<path d="M223,-9c-1,0,-2,0,-3,0c0,0,-1,0,-2,0c-6,0,-22,0,-35,5c0,0,-19,4,-31,16c0,0,-13,12,-21,32c0,0,-8,20,-7,49c0,0,-1,30,7,50c0,0,8,19,21,32c0,0,12,11,31,17c0,0,16,5,37,5c0,0,19,0,37,-5c0,0,17,-6,31,-17c0,0,12,-13,21,-32c0,0,7,-20,7,-50c0,0,0,-29,-7,-49c0,0,-9,-20,-21,-32C288,12,274,0,257,-4c0,0,-16,-5,-34,-5Zm0,627c-1,0,-2,0,-3,0c0,0,-1,0,-2,0c-6,0,-22,1,-35,6c0,0,-19,5,-31,18c0,0,-13,11,-21,32c0,0,-8,20,-7,49c0,0,-1,30,7,50c0,0,8,18,21,31c0,0,12,11,31,17c0,0,16,6,37,6c0,0,19,0,37,-6c0,0,17,-6,31,-17c0,0,12,-13,21,-31c0,0,7,-20,7,-50c0,0,0,-29,-7,-49c0,0,-9,-21,-21,-32c0,0,-14,-13,-31,-18c0,0,-16,-6,-34,-6Z" 
id="f1_p"
transform="scale(0.001,-0.001)" />

<path d="M38,359V474H436V359Z" 
id="f1_q"
transform="scale(0.001,-0.001)" />

<path d="M508,76c11,0,67,1,107,12c0,0,45,12,74,39c0,0,27,25,41,68c0,0,12,42,12,104c0,0,0,59,-11,104c0,0,-11,43,-38,73c0,0,-28,28,-72,43c0,0,-45,14,-112,14H357V76H508ZM465,609c12,0,70,1,110,12c0,0,45,12,72,38c0,0,26,24,39,64c0,0,11,39,11,95c0,0,-1,56,-13,94c0,0,-13,36,-41,60c0,0,-28,22,-73,33c0,0,-46,10,-110,10H357V609H463c0,0,1,0,2,0ZM58,0V64H78c0,0,25,0,49,4c0,0,22,3,39,16c0,0,17,11,27,32c0,0,10,21,10,58V923c0,0,0,33,-10,54c0,0,-11,20,-27,32c0,0,-18,11,-40,14c0,0,-24,3,-48,3H58v65H468c0,0,197,0,295,-66c0,0,97,-66,97,-207c0,0,0,-52,-14,-91c0,0,-15,-39,-40,-68c0,0,-26,-29,-60,-48c0,0,-35,-20,-75,-34v-6c0,0,51,-9,95,-30c0,0,43,-22,75,-56c0,0,30,-35,47,-82c0,0,17,-49,18,-108c0,0,0,-149,-97,-221C809,74,711,0,513,0Z" 
id="f1_r"
transform="scale(0.001,-0.001)" />

<path d="M51,0V64h4c0,0,26,0,49,4c0,0,23,3,40,16c0,0,16,11,27,32c0,0,10,21,10,58V650c0,0,0,33,-10,55c0,0,-11,20,-28,31c0,0,-17,11,-39,15c0,0,-24,3,-49,4H51v64H286L315,668h7c0,0,14,34,31,65c0,0,15,29,39,53c0,0,22,22,56,35c0,0,33,12,84,13c0,0,83,0,124,-29c0,0,41,-30,41,-82c0,0,0,-24,-8,-44c0,0,-9,-20,-25,-34c0,0,-17,-15,-44,-23c0,0,-27,-8,-66,-8c0,0,0,63,-18,92c0,0,-18,27,-62,27c0,0,-29,0,-51,-15c0,0,-22,-18,-39,-43c0,0,-17,-27,-28,-61c0,0,-13,-35,-19,-70c0,0,-8,-37,-10,-73c0,0,-4,-35,-3,-64V166c0,0,0,-33,10,-53c0,0,10,-22,27,-32c0,0,16,-10,40,-13c0,0,22,-4,48,-4h43V0Z" 
id="f1_c"
transform="scale(0.001,-0.001)" />

<path d="M28,0V64H40c0,0,25,0,49,4c0,0,22,3,39,16c0,0,17,11,27,32c0,0,10,21,10,58V993c0,0,0,33,-10,54c0,0,-11,21,-27,32c0,0,-18,11,-40,15c0,0,-24,3,-48,3H28v64H306V571c0,0,0,-21,0,-53c0,0,0,-32,0,-64c0,0,0,-36,0,-75L495,588c0,0,24,27,40,48c0,0,16,21,25,37c0,0,10,16,14,28c0,0,3,12,3,23c0,0,0,19,-18,26c0,0,-19,5,-56,5v64H840V755c0,0,-54,-1,-104,-37c0,0,-52,-38,-111,-106L518,492L721,189c0,0,39,-61,79,-93c0,0,38,-32,89,-32q1,0,2,0h4V0H874c0,0,-67,0,-109,4c0,0,-44,3,-75,20c0,0,-32,14,-57,45c0,0,-27,29,-59,79L421,388L309,304V166c0,0,0,-33,10,-53c0,0,10,-22,27,-32c0,0,17,-10,40,-13c0,0,22,-4,48,-4h5V0Z" 
id="f1_s"
transform="scale(0.001,-0.001)" />

<path d="M351,-291c2,0,3,0,5,0c0,0,1,0,2,0c12,0,84,1,134,15c0,0,52,13,84,38c0,0,31,23,44,58c0,0,12,34,13,74c0,0,0,35,-10,59c0,0,-11,22,-30,35c0,0,-20,12,-49,17c0,0,-29,5,-67,5H327c0,0,-33,0,-62,-5c0,0,-31,-5,-54,-20c0,0,-24,-17,-38,-44c0,0,-15,-29,-14,-74c0,0,0,-34,9,-63c0,0,9,-29,31,-50c0,0,23,-22,61,-33c0,0,35,-12,91,-12Zm34,658c0,0,1,0,1,0c0,0,37,0,64,11c0,0,24,11,42,35c0,0,15,22,23,59c0,0,7,35,7,86c0,0,0,103,-31,152c0,0,-31,49,-106,49c0,0,-74,0,-105,-50c0,0,-33,-50,-32,-153c0,0,0,-98,32,-143c0,0,32,-46,105,-46ZM353,-366c-8,0,-162,1,-239,59c0,0,-80,59,-79,164c0,0,0,45,16,78c0,0,15,34,42,58c0,0,26,22,61,38c0,0,34,14,72,21c0,0,-16,7,-31,18c0,0,-14,11,-26,27c0,0,-13,16,-20,36c0,0,-8,20,-7,45c0,0,0,45,24,79c0,0,23,32,76,64c0,0,-33,13,-58,37c0,0,-27,23,-44,54c0,0,-18,30,-27,65c0,0,-10,36,-9,74c0,0,0,66,18,119c0,0,18,51,53,89c0,0,36,36,90,56c0,0,53,18,126,19c0,0,28,-1,54,-4c0,0,26,-4,50,-11c0,0,22,-8,41,-16c0,0,18,-9,29,-19c0,0,12,12,27,27c0,0,14,14,33,27c0,0,19,12,41,20c0,0,21,7,47,8c0,0,23,-1,40,-6c0,0,17,-7,28,-17c0,0,11,-11,17,-25c0,0,5,-15,5,-31c0,0,0,-17,-4,-31c0,0,-6,-15,-15,-25c0,0,-10,-12,-25,-17c0,0,-15,-7,-36,-7c0,0,0,9,-2,18c0,0,-3,9,-8,17c0,0,-6,7,-16,13c0,0,-10,4,-25,4c0,0,-19,0,-35,-4c0,0,-16,-5,-31,-14c0,0,26,-33,44,-76c0,0,16,-44,16,-109c0,0,-1,-57,-17,-105c0,0,-17,-48,-51,-82c0,0,-35,-36,-86,-56c0,0,-52,-19,-121,-19H348c0,0,-11,0,-21,1c0,0,-10,1,-15,3c0,0,-15,-9,-29,-17c0,0,-13,-9,-23,-20c0,0,-11,-11,-16,-25c0,0,-6,-15,-6,-32c0,0,-1,-19,7,-29c0,0,7,-12,20,-18c0,0,12,-7,30,-8c0,0,17,-2,38,-2H506c0,0,68,-1,116,-17c0,0,48,-17,78,-47c0,0,30,-32,44,-73c0,0,14,-41,14,-90c0,0,-1,-67,-24,-119c0,0,-25,-53,-75,-89c0,0,-50,-38,-126,-58c0,0,-77,-20,-180,-20Z" 
id="f1_t"
transform="scale(0.001,-0.001)" />

<path d="M435,70c9,0,47,1,81,10c0,0,38,8,70,25c0,0,32,16,59,40c0,0,27,22,49,49L356,556c0,0,-35,-20,-63,-43c0,0,-29,-24,-48,-54c0,0,-20,-32,-30,-70c0,0,-11,-40,-11,-88c0,0,0,-56,17,-99c0,0,16,-44,47,-72c0,0,30,-31,71,-45c0,0,41,-15,94,-15h2Zm-4,601c0,0,45,18,79,41c0,0,32,21,54,47c0,0,21,26,32,57c0,0,10,31,10,72c0,0,0,30,-7,56c0,0,-8,26,-24,46c0,0,-17,19,-44,30c0,0,-28,11,-66,11c0,0,-69,-1,-105,-40c0,0,-37,-39,-36,-105c0,0,0,-29,6,-54c0,0,5,-26,19,-50c0,0,12,-26,33,-52c0,0,20,-27,49,-59ZM423,-14c-1,0,-3,0,-4,0c0,0,-1,0,-1,0c-10,0,-95,1,-159,22c0,0,-69,23,-114,66c0,0,-46,41,-67,101c0,0,-23,58,-23,131c0,0,0,65,18,113c0,0,17,47,49,85c0,0,31,35,77,64c0,0,45,27,100,50c0,0,-30,34,-51,67c0,0,-22,31,-36,62c0,0,-15,32,-23,65c0,0,-8,32,-7,70c0,0,-1,50,16,92c0,0,17,40,52,70c0,0,34,29,90,47c0,0,55,15,131,15c0,0,72,0,124,-17c0,0,52,-17,85,-47c0,0,32,-30,47,-69c0,0,14,-41,14,-84c0,0,0,-49,-14,-87c0,0,-15,-38,-45,-70c0,0,-32,-33,-80,-61c0,0,-49,-29,-119,-59L761,318c0,0,11,34,18,70c0,0,7,34,11,69c0,0,4,34,4,67c0,0,0,31,0,59v60h277V579h-14c0,0,-26,0,-50,-3c0,0,-25,-4,-45,-14c0,0,-22,-11,-38,-31c0,0,-18,-21,-27,-56c0,0,-14,-50,-31,-106c0,0,-19,-59,-44,-115L964,101c0,0,10,-11,23,-19c0,0,11,-8,28,-12c0,0,16,-4,38,-4h67V0H876L749,134c0,0,-28,-31,-60,-58c0,0,-34,-28,-74,-48C615,28,574,8,526,-2c0,0,-47,-12,-103,-12Z" 
id="f1_u"
transform="scale(0.001,-0.001)" />

<path d="M586,481c0,0,0,60,-9,111c0,0,-9,50,-29,85c0,0,-19,36,-51,56c0,0,-33,18,-79,19c0,0,-87,-1,-133,-69c0,0,-46,-69,-46,-202ZM439,-14c0,0,-83,0,-149,27c0,0,-66,28,-112,82c0,0,-46,53,-69,132c0,0,-25,77,-25,177c0,0,0,213,88,322c0,0,88,108,251,108c0,0,73,0,133,-23c0,0,58,-24,100,-69c0,0,41,-46,63,-114c0,0,21,-69,22,-159V399H233c0,0,0,-84,15,-143c0,0,15,-61,44,-99c0,0,28,-40,71,-57c0,0,40,-19,93,-19c1,0,2,0,4,0c0,0,38,0,73,9c0,0,33,9,62,24c0,0,26,14,48,34c0,0,21,18,35,40c0,0,10,-4,20,-19c0,0,9,-15,9,-33c0,0,0,-24,-16,-49c0,0,-17,-27,-50,-50C641,37,607,14,557,0c0,0,-50,-14,-118,-14Z" 
id="f1_d"
transform="scale(0.001,-0.001)" />

<path d="M433,-14c0,0,-77,0,-141,23c0,0,-64,23,-110,74c0,0,-46,50,-72,130c0,0,-26,79,-26,192c0,0,0,122,26,205c0,0,26,82,72,132c0,0,46,49,108,71c0,0,61,21,134,21c0,0,47,0,96,-9c0,0,47,-10,85,-29c0,0,38,-19,62,-49c0,0,23,-30,24,-69c0,0,0,-54,-35,-74c0,0,-35,-22,-102,-22c0,0,0,35,-6,68c0,0,-6,32,-20,56c0,0,-15,24,-39,38c0,0,-26,14,-65,14c0,0,-44,0,-79,-16c0,0,-35,-18,-61,-57c0,0,-26,-40,-39,-108c0,0,-13,-69,-13,-170c0,0,-1,-164,54,-243c0,0,54,-80,177,-80h1c6,0,72,1,123,30c0,0,52,30,79,77c0,0,11,-10,19,-24c0,0,7,-15,7,-36c0,0,0,-27,-16,-52c0,0,-17,-26,-49,-47C627,32,594,10,546,0c0,0,-48,-14,-113,-14Z" 
id="f1_e"
transform="scale(0.001,-0.001)" />

<path d="M99,350v90H755V350Zm0,300v91H755V650Z" 
id="f1_v"
transform="scale(0.001,-0.001)" />

<path d="M413,510c0,0,36,0,67,11c0,0,30,9,55,27c0,0,23,15,42,39c0,0,16,22,27,47v3c0,0,0,101,-15,174c0,0,-15,72,-41,119c0,0,-27,47,-62,70c0,0,-36,22,-81,22c0,0,-81,-1,-125,-71c0,0,-45,-71,-45,-206c0,0,0,-62,11,-107c0,0,11,-46,34,-73c0,0,22,-29,55,-41c0,0,33,-14,78,-14ZM350,-16c-1,0,-2,0,-3,0c0,0,-1,0,-2,0c-12,0,-68,0,-106,12c0,0,-44,9,-67,29c0,0,-27,18,-36,42c0,0,-11,23,-11,48c0,0,0,27,15,48c0,0,14,18,31,25c0,0,10,-25,26,-46c0,0,15,-22,37,-38c0,0,23,-17,51,-27c0,0,27,-10,61,-10c1,0,3,0,4,0c0,0,127,0,189,114c0,0,61,112,61,343c0,0,-17,-20,-38,-39c0,0,-23,-20,-50,-33c0,0,-28,-16,-61,-23c0,0,-34,-9,-74,-9c0,0,-67,0,-121,19c0,0,-56,19,-95,59c0,0,-40,38,-62,97c0,0,-21,58,-21,135c0,0,0,83,22,153c0,0,22,67,65,118c0,0,41,49,103,78c0,0,59,27,137,27c0,0,77,0,143,-30c0,0,64,-30,112,-92c0,0,48,-63,75,-160c0,0,25,-97,26,-231c0,0,0,-80,-10,-156c0,0,-10,-77,-31,-145c0,0,-23,-68,-55,-124c0,0,-33,-58,-79,-98C586,70,539,28,480,6c0,0,-57,-22,-130,-22Z" 
id="f1_w"
transform="scale(0.001,-0.001)" />

<path d="M421,83c0,0,59,0,100,20c0,0,39,19,65,60c0,0,23,39,34,101c0,0,10,61,10,144c0,0,0,79,-10,141c0,0,-11,61,-34,103c0,0,-25,41,-65,63c0,0,-41,21,-101,21c0,0,-51,0,-86,-21c0,0,-36,-23,-58,-64c0,0,-24,-42,-34,-103c0,0,-10,-62,-10,-141c0,0,0,-163,44,-244c0,0,43,-80,145,-80ZM395,-14c-8,0,-78,1,-133,24c0,0,-59,24,-98,77c0,0,-39,52,-60,132c0,0,-20,79,-20,189c0,0,0,110,20,191c0,0,21,80,60,133c0,0,39,51,98,77c0,0,58,25,133,25c0,0,44,0,80,-10c0,0,36,-10,65,-27c0,0,28,-18,51,-43c0,0,21,-24,39,-54h4c0,0,0,36,0,70c0,0,0,27,0,57c0,0,0,27,0,41V993c0,0,-1,33,-10,54c0,0,-11,21,-29,32c0,0,-18,11,-41,15c0,0,-24,3,-49,3H492v64H773V168c0,0,0,-34,10,-54c0,0,10,-21,27,-32c0,0,17,-11,40,-14c0,0,22,-4,48,-4h13V0H652L636,137h-6c0,0,-18,-35,-39,-62c0,0,-23,-29,-51,-48C540,27,512,6,476,-3c0,0,-36,-11,-81,-11Z" 
id="f1_8"
transform="scale(0.001,-0.001)" />

<path d="M518,83c0,0,50,0,86,21c0,0,35,21,58,63c0,0,23,41,33,104c0,0,10,61,11,142c0,0,-1,80,-11,142c0,0,-10,60,-33,101c0,0,-23,40,-58,60c0,0,-38,20,-88,20c0,0,-60,0,-99,-19c0,0,-41,-20,-64,-61c0,0,-24,-40,-34,-101c0,0,-10,-62,-10,-144c0,0,0,-80,10,-141c0,0,10,-62,35,-103c0,0,23,-42,64,-63c0,0,39,-21,100,-21ZM28,-366v64H40c0,0,25,0,49,4c0,0,22,3,39,16c0,0,17,11,27,33c0,0,10,21,10,58V650c0,0,0,33,-10,55c0,0,-11,20,-27,31c0,0,-18,11,-40,15c0,0,-24,3,-48,4H20v64H287L303,681h6c0,0,16,34,39,63c0,0,21,28,50,49c0,0,27,19,64,31c0,0,36,9,80,10c0,0,75,0,134,-25c0,0,58,-26,98,-76c0,0,38,-53,60,-132c0,0,20,-80,20,-190c0,0,0,-111,-20,-191c0,0,-22,-80,-60,-133c0,0,-40,-53,-98,-77c0,0,-57,-24,-131,-24c-1,0,-2,0,-3,0h-2c-8,0,-46,1,-77,10c0,0,-37,8,-65,26c0,0,-29,18,-50,43c0,0,-23,24,-39,54h-3c0,0,0,-39,0,-73c0,0,0,-15,0,-30c0,0,0,-15,0,-28c0,0,0,-14,0,-24c0,0,0,-11,0,-17V-199c0,0,0,-33,10,-54c0,0,10,-21,28,-31c0,0,17,-11,41,-14c0,0,23,-4,49,-4h5v-64Z" 
id="f1_k"
transform="scale(0.001,-0.001)" />

<path d="M383,-14c-2,0,-4,0,-6,0h-1c-12,0,-79,1,-128,14c0,0,-56,12,-90,36c0,0,-36,23,-52,54c0,0,-17,30,-17,64c0,0,0,46,26,73c0,0,25,25,70,25c0,0,0,-40,13,-74c0,0,12,-35,38,-59c0,0,24,-24,61,-38c0,0,34,-14,79,-14c1,0,2,0,3,0c0,0,45,0,86,13c0,0,42,12,73,42c0,0,30,29,50,76c0,0,18,47,18,115c0,0,0,48,-18,88c0,0,-20,38,-55,67c0,0,-36,27,-88,43c0,0,-52,14,-115,15H281v78h49c0,0,50,0,94,17c0,0,44,16,77,47c0,0,31,29,50,74c0,0,19,43,19,98c0,0,0,45,-9,80c0,0,-10,34,-28,59c0,0,-21,25,-51,38c0,0,-32,12,-75,12c0,0,-53,0,-85,-18c0,0,-33,-20,-52,-50c0,0,-19,-31,-25,-73c0,0,-7,-41,-7,-86c0,0,-28,0,-52,4c0,0,-23,4,-41,17c0,0,-18,11,-28,30c0,0,-10,19,-10,48c0,0,0,43,19,82c0,0,19,37,57,65c0,0,38,28,94,43c0,0,56,15,130,15c0,0,71,0,131,-16c0,0,59,-17,101,-47c0,0,41,-31,65,-76c0,0,23,-46,23,-104c0,0,0,-51,-18,-97c0,0,-19,-46,-51,-82c0,0,-33,-38,-78,-63c0,0,-45,-27,-97,-39c0,0,27,-4,60,-10c0,0,32,-8,63,-21c0,0,32,-13,61,-33c0,0,28,-20,51,-50c0,0,21,-29,35,-67c0,0,12,-39,12,-89c0,0,0,-62,-16,-110c0,0,-17,-48,-45,-84c0,0,-29,-37,-67,-62c0,0,-38,-26,-81,-41C556,15,512,0,467,-6c0,0,-42,-8,-84,-8Z" 
id="f1_x"
transform="scale(0.001,-0.001)" />

<path d="M382,-14c-2,0,-3,0,-5,0c0,0,-75,0,-131,15c0,0,-57,15,-95,44c0,0,-40,27,-58,68c0,0,-20,38,-20,87c0,0,0,45,29,75c0,0,29,27,82,28c0,0,0,-49,13,-92c0,0,12,-44,36,-77c0,0,24,-34,64,-54c0,0,38,-20,92,-20c6,0,104,0,161,50c0,0,58,49,58,142c0,0,0,41,-12,74c0,0,-13,31,-39,60c0,0,-29,26,-73,52c0,0,-46,24,-113,52c0,0,-71,29,-123,63c0,0,-54,32,-88,74c0,0,-36,39,-53,90c0,0,-17,50,-17,113c0,0,0,65,26,117c0,0,24,51,69,87c0,0,44,34,106,54c0,0,60,18,133,18c0,0,68,0,122,-14c0,0,52,-15,90,-38c0,0,36,-25,56,-54c0,0,18,-32,18,-65c0,0,0,-50,-32,-74c0,0,-33,-26,-86,-26c0,0,-1,1,-2,1c0,0,-1,35,-8,70c0,0,-9,34,-29,62c0,0,-21,27,-53,44c0,0,-34,17,-81,17c0,0,-45,0,-79,-11c0,0,-36,-13,-59,-36c0,0,-24,-23,-36,-55c0,0,-13,-33,-13,-71c0,0,-1,-47,12,-80c0,0,12,-35,40,-63c0,0,27,-28,73,-53c0,0,46,-26,112,-52c0,0,67,-28,120,-58c0,0,52,-32,89,-68c0,0,37,-39,56,-84c0,0,19,-47,19,-106c0,0,0,-73,-26,-129c0,0,-27,-59,-76,-97C651,66,602,26,533,6c0,0,-67,-20,-151,-20Z" 
id="f1_y"
transform="scale(0.001,-0.001)" />

<path d="M20,0V64H40c0,0,25,0,49,4c0,0,22,3,39,16c0,0,17,11,27,32c0,0,10,21,10,58V993c0,0,0,33,-10,54c0,0,-11,21,-27,32c0,0,-18,11,-40,15c0,0,-24,3,-48,3H20v64H309V174c0,0,-1,-37,10,-58c0,0,9,-21,26,-32c0,0,17,-13,41,-16c0,0,22,-4,48,-4h20V0Z" 
id="f1_g"
transform="scale(0.001,-0.001)" />

<path d="M147,0V64H249c0,0,26,0,49,4c0,0,23,3,40,16c0,0,16,11,27,32c0,0,9,21,9,58V976c0,0,-29,-35,-55,-64c0,0,-27,-29,-50,-50c0,0,-24,-22,-46,-32c0,0,-22,-12,-44,-12c0,0,-1,0,-1,0c0,0,-1,0,-1,0c-3,0,-35,0,-55,23c0,0,-21,21,-21,59c0,0,23,5,47,15c0,0,23,7,50,22c0,0,25,13,57,34c0,0,30,18,69,47l107,79h98V174c0,0,-1,-37,10,-58c0,0,9,-21,26,-32c0,0,17,-13,41,-16c0,0,22,-4,48,-4h75V0Z" 
id="f1_z"
transform="scale(0.001,-0.001)" />

<path d="M439,497c0,0,69,0,118,15c0,0,49,14,81,47c0,0,31,32,46,83c0,0,14,50,14,123c0,0,-1,64,-12,112c0,0,-14,47,-41,79c0,0,-29,31,-74,47c0,0,-46,14,-110,15H357V497ZM58,0V64H78c0,0,25,0,49,4c0,0,22,3,39,16c0,0,17,11,27,32c0,0,10,21,10,58V923c0,0,0,33,-10,54c0,0,-11,20,-27,32c0,0,-18,11,-40,14c0,0,-24,3,-48,3H58v65H487c0,0,96,-1,167,-22c0,0,70,-22,117,-63c0,0,46,-42,70,-101c0,0,22,-60,22,-134c0,0,0,-68,-21,-130c0,0,-22,-63,-70,-111c0,0,-48,-49,-127,-76c0,0,-79,-30,-191,-30H357V166c0,0,0,-33,11,-53c0,0,9,-22,27,-32c0,0,16,-10,40,-13c0,0,22,-4,48,-4h50V0Z" 
id="f1_i"
transform="scale(0.001,-0.001)" />

<path d="M28,0V64H40c0,0,25,0,49,4c0,0,22,3,39,16c0,0,17,11,27,32c0,0,10,21,10,58V993c0,0,0,33,-10,54c0,0,-11,21,-27,32c0,0,-18,11,-40,15c0,0,-24,3,-48,3H28v64H308V825c0,0,0,-22,0,-43c0,0,-1,-24,-4,-43c0,0,0,-23,0,-44h6c0,0,68,139,225,139c0,0,65,-1,115,-17c0,0,50,-18,85,-54c0,0,34,-37,52,-93c0,0,18,-58,18,-135V174c0,0,0,-37,9,-58c0,0,9,-21,24,-32c0,0,16,-13,38,-16c0,0,21,-4,47,-4h4V0H662V527c0,0,0,50,-9,89c0,0,-10,39,-29,66c0,0,-20,26,-52,41c0,0,-33,13,-78,13c0,0,-49,0,-82,-17c0,0,-35,-18,-58,-50c0,0,-24,-33,-34,-78c0,0,-11,-46,-11,-102V166c0,0,0,-33,10,-53c0,0,10,-22,27,-32c0,0,17,-10,40,-13c0,0,22,-4,48,-4h5V0Z" 
id="f1_9"
transform="scale(0.001,-0.001)" />

<path d="M58,-366v72h1c8,0,79,1,133,23c0,0,55,24,97,64c0,0,39,40,68,95c0,0,26,55,45,118L119,674c0,0,-10,23,-20,39c0,0,-10,14,-21,25c0,0,-13,9,-29,13c0,0,-17,3,-39,4H6v64H373V755h-4c0,0,-47,0,-69,-18c0,0,-24,-18,-23,-56c0,0,-1,-13,3,-25c0,0,2,-14,9,-31L401,353c0,0,9,-27,22,-57c0,0,11,-31,22,-61c0,0,9,-31,18,-57c0,0,7,-28,11,-47h4c0,0,8,34,23,82c0,0,14,48,34,103L637,614c0,0,7,19,11,36c0,0,2,16,2,30c0,0,0,38,-24,57c0,0,-26,18,-76,18h-5v64H863V755h-4c0,0,-23,0,-38,-5c0,0,-18,-6,-30,-18c0,0,-13,-14,-24,-37c0,0,-11,-24,-25,-59L510,-5c0,0,-27,-74,-50,-130c0,0,-25,-56,-50,-95c0,0,-27,-41,-57,-67c0,0,-32,-26,-71,-41c0,0,-40,-17,-91,-22c0,0,-51,-6,-119,-6Z" 
id="f1_a"
transform="scale(0.001,-0.001)" />

<path d="M376,-14c-1,0,-3,0,-5,0c0,0,-87,0,-148,14c0,0,-63,14,-102,40c0,0,-40,26,-59,59c0,0,-19,32,-19,69c0,0,0,29,10,51c0,0,10,23,28,38c0,0,18,15,42,23c0,0,23,7,49,7c0,0,0,-48,14,-85c0,0,14,-37,39,-61c0,0,24,-25,59,-37c0,0,35,-12,76,-12c0,0,37,0,72,10c0,0,33,10,60,36c0,0,25,25,41,69c0,0,15,43,15,109c0,0,0,44,-15,81c0,0,-15,36,-45,63c0,0,-31,26,-75,41c0,0,-44,14,-101,15H217v95H319c7,0,50,1,85,16c0,0,36,15,60,46c0,0,23,30,36,71c0,0,12,41,12,92c0,0,0,83,-32,130c0,0,-33,47,-95,47c0,0,-42,0,-66,-20c0,0,-27,-20,-41,-54c0,0,-15,-33,-19,-76c0,0,-6,-42,-5,-87c0,0,-96,0,-147,33c0,0,-52,32,-52,103c0,0,0,41,22,76c0,0,21,35,63,62c0,0,42,26,106,41c0,0,62,15,146,15c0,0,81,0,147,-16c0,0,65,-17,111,-49c0,0,46,-32,71,-78c0,0,24,-47,24,-106c0,0,0,-51,-18,-95c0,0,-18,-44,-49,-77c0,0,-31,-35,-74,-60c0,0,-42,-27,-92,-43c0,0,45,-8,94,-26c0,0,48,-20,88,-50c0,0,39,-32,65,-79c0,0,25,-47,25,-112c0,0,0,-93,-34,-157c0,0,-36,-64,-93,-101C657,57,599,17,525,1c0,0,-72,-15,-149,-15Z" 
id="f2_1e"
transform="scale(0.001,-0.001)" />

<path d="M232,-11c0,0,-26,0,-49,7c0,0,-24,4,-40,19c0,0,-17,13,-27,37c0,0,-10,23,-9,58c0,0,-1,34,9,59c0,0,10,22,27,37c0,0,16,14,40,20c0,0,23,5,49,6c0,0,25,-1,48,-6c0,0,23,-6,40,-20c0,0,16,-15,28,-37c0,0,9,-25,9,-59c0,0,0,-35,-9,-58c0,0,-12,-24,-28,-37C320,15,303,0,280,-4c0,0,-23,-7,-48,-7Z" 
id="f2_n"
transform="scale(0.001,-0.001)" />

<path d="M512,95c0,0,78,0,138,33c0,0,59,31,100,93c0,0,39,61,59,148c0,0,21,86,21,196c0,0,-1,218,-80,326c0,0,-82,106,-237,106H426V95ZM43,0V81h64c0,0,16,0,31,4c0,0,14,3,25,13c0,0,9,10,16,30c0,0,5,19,6,53V917c0,0,-1,30,-6,49c0,0,-7,17,-16,28c0,0,-12,9,-26,13c0,0,-15,3,-30,3H43v81H547c0,0,126,-1,227,-33c0,0,100,-34,170,-99c0,0,70,-67,107,-165c0,0,37,-99,37,-229c0,0,0,-125,-35,-229c0,0,-35,-104,-102,-179C951,157,883,82,782,42C782,42,680,0,547,0Z" 
id="f2_1f"
transform="scale(0.001,-0.001)" />

<path d="M26,0V81H44c0,0,16,0,37,4c0,0,17,3,35,13c0,0,15,10,26,30c0,0,10,19,11,53V645c0,0,-1,29,-11,49c0,0,-11,18,-27,28c0,0,-17,9,-35,13c0,0,-20,3,-36,3H26v81H385V181c0,0,0,-34,11,-53c0,0,10,-20,27,-30c0,0,16,-10,35,-13c0,0,19,-4,36,-4h18V0ZM261,956c0,0,-28,0,-51,7c0,0,-24,7,-41,20c0,0,-18,13,-27,35c0,0,-11,20,-11,49c0,0,0,28,11,50c0,0,9,21,27,34c0,0,17,12,41,19c0,0,23,6,51,6c0,0,25,0,50,-6c0,0,23,-7,42,-19c0,0,18,-13,29,-34c0,0,10,-22,10,-50c0,0,0,-29,-10,-49c0,0,-11,-22,-29,-35c0,0,-19,-13,-42,-20c0,0,-25,-7,-50,-7Z" 
id="f2_7"
transform="scale(0.001,-0.001)" />

<path d="M29,0V81H63c0,0,16,0,35,4c0,0,18,3,36,13c0,0,15,10,26,30c0,0,10,19,11,53V715H35V819H171v57c0,0,-1,70,18,127c0,0,18,54,57,94c0,0,37,38,97,58c0,0,59,20,140,20c0,0,74,-1,123,-8c0,0,49,-10,78,-24c0,0,29,-16,42,-36c0,0,12,-21,12,-44c0,0,-1,-52,-46,-75c0,0,-47,-24,-142,-24c0,0,-1,18,-4,40c0,0,-4,21,-13,40c0,0,-9,19,-23,32c0,0,-15,12,-36,12c0,0,-20,0,-32,-10c0,0,-15,-11,-22,-32c0,0,-10,-23,-13,-58c0,0,-3,-35,-3,-85V819H614V715H404V181c0,0,0,-34,11,-53c0,0,9,-20,27,-30c0,0,15,-10,35,-13c0,0,18,-4,35,-4h71V0Z" 
id="f2_e"
transform="scale(0.001,-0.001)" />

<path d="M574,490c0,0,0,58,-6,105c0,0,-8,45,-22,78c0,0,-15,32,-37,49c0,0,-24,17,-56,17c0,0,-65,0,-103,-63c0,0,-38,-64,-38,-186ZM468,-14c0,0,-98,0,-171,27c0,0,-75,28,-125,82c0,0,-50,54,-75,133c0,0,-26,76,-25,177c0,0,-1,107,25,189c0,0,25,80,74,136c0,0,48,53,119,82c0,0,70,26,161,26c0,0,82,0,149,-23c0,0,65,-24,112,-70c0,0,46,-47,71,-115c0,0,25,-69,25,-159V392H308c0,0,0,-77,15,-132c0,0,14,-55,40,-91c0,0,26,-36,63,-53c0,0,37,-17,85,-17c0,0,1,0,2,0c8,0,41,1,71,10c0,0,34,9,61,26c0,0,28,16,48,40c0,0,21,22,34,48c0,0,41,-22,41,-75c0,0,0,-32,-18,-61c0,0,-18,-31,-55,-53C695,34,658,12,602,0c0,0,-57,-14,-134,-14Z" 
id="f2_5"
transform="scale(0.001,-0.001)" />

<path d="M31,0V81h4c0,0,25,0,48,4c0,0,21,3,37,16c0,0,16,11,25,33c0,0,7,20,8,57V634c0,0,0,33,-8,55c0,0,-8,20,-22,31c0,0,-15,11,-35,15c0,0,-20,3,-45,3H38v81H347L377,700h8c0,0,14,34,33,60c0,0,17,26,43,43c0,0,24,16,59,26c0,0,34,7,81,8c0,0,90,0,132,-31c0,0,43,-33,43,-93c0,0,-1,-71,-51,-109c0,0,-50,-39,-141,-39c0,0,-1,0,-2,0c0,0,-1,32,-4,56c0,0,-4,23,-12,39c0,0,-9,16,-23,24c0,0,-15,8,-36,8c0,0,-28,0,-47,-13c0,0,-20,-14,-33,-34c0,0,-14,-22,-22,-49c0,0,-9,-27,-13,-54c0,0,-6,-28,-6,-52c0,0,0,-25,0,-42V184c0,0,0,-34,9,-54c0,0,7,-22,22,-32c0,0,13,-10,34,-13c0,0,18,-4,41,-4h49V0Z" 
id="f2_6"
transform="scale(0.001,-0.001)" />

<path d="M31,0V81h3c0,0,25,0,47,4c0,0,21,3,38,14c0,0,16,11,25,32c0,0,9,20,9,55V639c0,0,0,32,-8,51c0,0,-8,19,-22,31c0,0,-15,9,-35,14c0,0,-20,3,-45,3H38v81H359L379,710h7c0,0,24,43,50,69c0,0,25,25,54,39c0,0,29,13,62,17c0,0,32,3,68,3c0,0,59,0,106,-17c0,0,47,-17,80,-53c0,0,32,-36,49,-91c0,0,16,-56,17,-133V189c0,0,0,-35,7,-56c0,0,5,-22,18,-33c0,0,12,-12,33,-15c0,0,18,-4,45,-4h4V0H640V503c0,0,-1,48,-6,88c0,0,-7,38,-21,64c0,0,-15,25,-38,40c0,0,-24,14,-57,14c0,0,-38,-1,-64,-20c0,0,-26,-19,-40,-51c0,0,-16,-33,-22,-76c0,0,-7,-44,-7,-90V181c0,0,0,-33,8,-52c0,0,7,-20,22,-30c0,0,13,-11,35,-14c0,0,19,-4,45,-4h5V0Z" 
id="f2_d"
transform="scale(0.001,-0.001)" />

<path d="M371,-14c0,0,-52,0,-93,13c0,0,-42,11,-71,40c0,0,-29,27,-44,74c0,0,-16,46,-16,113V715H32v78c0,0,49,0,88,19c0,0,38,19,62,45c0,0,46,49,70,152H379V819H574V715H379V242c0,0,0,-70,24,-102c0,0,22,-32,75,-32c0,0,1,0,2,0c0,0,29,0,57,5c0,0,27,3,51,9V23c0,0,-13,-6,-32,-13C556,10,534,4,508,0c0,0,-28,-7,-62,-10c0,0,-35,-4,-75,-4Z" 
id="f2_4"
transform="scale(0.001,-0.001)" />

<path d="M392,96c0,0,32,0,60,14c0,0,25,13,46,38c0,0,18,26,29,62c0,0,9,35,9,79V403H468c0,0,-47,-1,-77,-13c0,0,-31,-13,-50,-34c0,0,-19,-22,-27,-53c0,0,-8,-33,-8,-74c0,0,-1,-67,21,-100c0,0,21,-33,65,-33ZM314,-14c-2,0,-3,0,-5,0c0,0,-51,0,-94,14c0,0,-44,15,-76,46c0,0,-33,32,-52,79c0,0,-19,47,-18,111c0,0,-1,125,85,185c0,0,85,61,257,61H536v86c0,0,0,38,-3,71c0,0,-3,32,-12,57c0,0,-11,23,-29,37c0,0,-19,11,-50,12c0,0,-30,0,-49,-12c0,0,-20,-13,-32,-34c0,0,-13,-22,-16,-52c0,0,-6,-31,-6,-67h-1c-11,0,-105,1,-153,24c0,0,-53,23,-52,79c0,0,-1,41,25,71c0,0,24,29,68,49c0,0,43,18,100,27c0,0,57,8,122,8c0,0,80,0,141,-13c0,0,59,-15,100,-45c0,0,38,-30,59,-80c0,0,20,-50,20,-121V189c0,0,0,-31,6,-52c0,0,4,-21,15,-33c0,0,9,-12,28,-17c0,0,15,-6,39,-6c1,0,3,0,4,0h6V0H582L550,105H536c0,0,-26,-30,-47,-53c0,0,-23,-24,-48,-38C441,14,415,0,384,-6c0,0,-30,-8,-70,-8Z" 
id="f2_3"
transform="scale(0.001,-0.001)" />

<path d="M540,99c1,0,2,0,2,0c3,0,76,1,109,82c0,0,34,81,34,233c0,0,0,155,-34,234c0,0,-33,76,-110,76c0,0,-46,0,-76,-18c0,0,-30,-20,-47,-58c0,0,-18,-40,-26,-97c0,0,-8,-60,-7,-138c0,0,-1,-76,7,-134c0,0,8,-60,26,-98c0,0,18,-41,48,-61c0,0,29,-21,74,-21ZM610,-14c-1,0,-2,0,-4,0h-1c-9,0,-47,1,-78,10c0,0,-37,8,-64,26c0,0,-30,18,-51,43c0,0,-23,24,-39,54H359L316,0H26V81H37c0,0,20,0,42,4c0,0,20,3,37,15c0,0,17,10,27,32c0,0,10,21,10,56V978c0,0,0,32,-10,53c0,0,-10,19,-26,31c0,0,-17,11,-38,14c0,0,-22,3,-47,4H26v81H383V900c0,0,0,-24,0,-56c0,0,0,-33,-3,-61c0,0,-4,-34,-7,-68h10c0,0,33,56,88,89c0,0,55,32,141,33c0,0,75,0,132,-25c0,0,57,-26,97,-76c0,0,39,-53,59,-132c0,0,20,-81,20,-191c0,0,0,-112,-20,-192c0,0,-22,-81,-61,-133c0,0,-39,-53,-97,-78c0,0,-59,-24,-132,-24Z" 
id="f2_14"
transform="scale(0.001,-0.001)" />

<path d="M304,0L108,657c0,0,-8,23,-18,40c0,0,-10,15,-22,24c0,0,-13,9,-29,13c0,0,-17,3,-39,4H-3v81H443V738H423c0,0,-46,-1,-69,-13c0,0,-24,-13,-23,-51c0,0,0,-13,5,-31c0,0,3,-19,8,-35L401,410c0,0,7,-29,14,-57c0,0,6,-29,12,-57c0,0,6,-28,12,-52c0,0,3,-25,7,-44h5c0,0,6,37,18,79c0,0,11,40,31,97L656,811h99L904,360c0,0,19,-55,27,-93c0,0,7,-39,13,-67h5c0,0,3,19,7,36c0,0,3,17,9,36c0,0,4,19,10,41c0,0,5,21,15,50l67,223c0,0,5,19,11,42c0,0,2,22,3,35c0,0,0,39,-24,57c0,0,-26,18,-77,18H959v81h350V738h-19c0,0,-23,0,-39,-5c0,0,-17,-5,-29,-17c0,0,-13,-13,-24,-36c0,0,-11,-25,-23,-62L978,0H813L646,507L471,0Z" 
id="f2_c"
transform="scale(0.001,-0.001)" />

<path d="M448,99c0,0,45,0,76,20c0,0,29,18,48,57c0,0,17,38,26,98c0,0,7,57,7,137c0,0,0,75,-7,134c0,0,-9,59,-26,99c0,0,-19,39,-48,60c0,0,-31,20,-76,20c0,0,-38,0,-65,-20c0,0,-29,-21,-44,-61c0,0,-17,-40,-25,-98c0,0,-8,-60,-8,-135c0,0,0,-156,33,-233c0,0,31,-78,109,-78ZM386,-14c-1,0,-3,0,-4,0h-1c-7,0,-77,1,-132,24c0,0,-59,24,-98,77c0,0,-40,52,-60,132c0,0,-22,79,-21,189c0,0,-1,110,21,192c0,0,20,80,60,133c0,0,38,53,97,79c0,0,56,25,131,25c0,0,43,0,78,-9c0,0,35,-10,63,-25c0,0,28,-17,49,-39c0,0,21,-22,37,-49h9c0,0,0,42,-6,79c0,0,0,15,0,33c0,0,0,16,-2,31c0,0,-2,14,-2,25c0,0,0,11,0,18v84c0,0,0,32,-10,51c0,0,-10,18,-27,29c0,0,-17,8,-39,12c0,0,-22,3,-48,3H469v81H837V188c0,0,0,-35,10,-56c0,0,10,-22,29,-32c0,0,16,-12,40,-15c0,0,22,-4,48,-4h6V0H674L631,119H617c0,0,-18,-31,-39,-56c0,0,-23,-25,-51,-41C527,22,498,4,463,-4c0,0,-34,-10,-77,-10Z" 
id="f2_a"
transform="scale(0.001,-0.001)" />

<path d="M469,81c0,0,43,0,75,22c0,0,30,21,49,63c0,0,19,41,27,103c0,0,7,61,8,144c0,0,-1,81,-8,144c0,0,-9,60,-28,102c0,0,-20,40,-50,62c0,0,-31,20,-74,20c0,0,-45,0,-75,-20c0,0,-30,-22,-49,-62c0,0,-19,-42,-27,-102c0,0,-8,-63,-8,-144c0,0,0,-83,9,-144c0,0,7,-62,27,-103c0,0,19,-42,50,-63c0,0,29,-22,74,-22Zm-1,-95c0,0,-1,0,-2,0c0,0,-92,0,-165,26c0,0,-73,25,-123,79c0,0,-52,52,-79,134c0,0,-28,80,-27,188c0,0,-1,215,101,320c0,0,101,105,298,105c0,0,91,0,165,-26c0,0,72,-26,123,-79c0,0,50,-53,79,-132c0,0,27,-81,27,-188c0,0,0,-217,-101,-322C764,91,662,-14,468,-14Z" 
id="f2_b"
transform="scale(0.001,-0.001)" />

<path d="M31,0V81h3c0,0,25,0,47,4c0,0,21,3,38,14c0,0,16,11,25,32c0,0,9,20,9,55V643c0,0,0,32,-8,52c0,0,-8,18,-22,30c0,0,-15,10,-35,14c0,0,-20,3,-45,3H38v77H359L379,710h7c0,0,24,43,50,69c0,0,25,25,54,39c0,0,29,13,62,17c0,0,32,3,68,3c0,0,83,0,144,-29c0,0,59,-31,87,-99h14c0,0,22,43,50,69c0,0,27,25,59,39c0,0,29,13,64,17c0,0,34,3,70,3c0,0,59,0,106,-17c0,0,47,-17,80,-53c0,0,32,-36,49,-91c0,0,16,-56,17,-133V189c0,0,0,-35,7,-56c0,0,5,-22,18,-33c0,0,12,-12,32,-15c0,0,19,-4,45,-4h5V0H1127V503c0,0,0,98,-27,152c0,0,-28,54,-94,54c0,0,-36,-1,-62,-17c0,0,-26,-18,-41,-48c0,0,-17,-31,-23,-70c0,0,-9,-41,-8,-84V189c0,0,0,-35,7,-56c0,0,5,-22,18,-33c0,0,12,-12,33,-15c0,0,18,-4,45,-4h4V0H640V503c0,0,-1,48,-6,88c0,0,-7,38,-21,64c0,0,-15,25,-38,40c0,0,-24,14,-57,14c0,0,-38,-1,-64,-20c0,0,-26,-19,-40,-51c0,0,-16,-33,-22,-76c0,0,-7,-44,-7,-90V181c0,0,0,-33,8,-52c0,0,7,-20,22,-30c0,0,13,-11,35,-14c0,0,19,-4,45,-4h5V0Z" 
id="f2_f"
transform="scale(0.001,-0.001)" />

<path d="M451,-14c0,0,-85,0,-154,21c0,0,-71,21,-120,71c0,0,-51,50,-78,131c0,0,-28,80,-27,198c0,0,0,123,29,206c0,0,27,82,79,133c0,0,50,50,118,72c0,0,68,20,148,20c0,0,73,0,131,-11c0,0,56,-14,94,-35c0,0,38,-21,59,-50c0,0,18,-31,19,-64c0,0,-1,-25,-8,-48c0,0,-10,-24,-31,-41c0,0,-22,-18,-60,-30c0,0,-40,-11,-99,-11c0,0,0,39,-4,76c0,0,-6,35,-17,62c0,0,-11,26,-29,44c0,0,-20,15,-49,15c0,0,-34,0,-60,-15c0,0,-26,-18,-45,-56c0,0,-20,-39,-29,-103c0,0,-11,-66,-11,-163c0,0,0,-156,43,-232c0,0,42,-77,137,-77q1,0,2,0h1c8,0,42,1,73,10c0,0,35,9,63,26c0,0,27,16,50,40c0,0,21,22,34,48c0,0,19,-11,28,-30c0,0,9,-19,9,-40c0,0,-1,-29,-17,-59c0,0,-18,-31,-53,-54C677,40,639,15,584,1c0,0,-57,-15,-133,-15Z" 
id="f2_o"
transform="scale(0.001,-0.001)" />

<path d="M69,-234v79c0,0,32,11,59,24c0,0,24,11,41,26c0,0,17,14,26,31c0,0,7,16,8,38c0,0,-1,14,-8,24c0,0,-9,9,-20,16c0,0,-13,8,-27,18c0,0,-15,7,-27,21c0,0,-14,14,-21,34c0,0,-8,18,-8,50c0,0,0,51,31,78c0,0,31,27,78,27c0,0,65,0,103,-45c0,0,38,-45,38,-123c0,0,0,-48,-15,-93c0,0,-15,-46,-47,-84c0,0,-33,-40,-85,-70c0,0,-53,-31,-126,-51Z" 
id="f2_16"
transform="scale(0.001,-0.001)" />

<path d="M38,336V497H436V336Z" 
id="f2_1g"
transform="scale(0.001,-0.001)" />

<path d="M498,87c0,0,82,0,138,27c0,0,56,26,93,71L402,533c0,0,-33,-23,-52,-48c0,0,-22,-27,-33,-55c0,0,-13,-29,-16,-60c0,0,-5,-33,-5,-67c0,0,0,-46,15,-84c0,0,14,-40,40,-69c0,0,26,-29,65,-46c0,0,36,-17,82,-17Zm21,604c0,0,32,18,54,38c0,0,21,20,34,44c0,0,12,23,19,51c0,0,5,28,5,64c0,0,0,26,-4,50c0,0,-6,23,-18,40c0,0,-12,16,-32,27c0,0,-22,10,-53,10c0,0,-26,0,-44,-10c0,0,-20,-11,-32,-27c0,0,-12,-17,-18,-40c0,0,-6,-24,-6,-52c0,0,0,-27,6,-50c0,0,6,-24,18,-47c0,0,12,-24,29,-47c0,0,18,-24,42,-51ZM465,-14c-2,0,-4,0,-5,0c0,0,-94,0,-167,21c0,0,-73,21,-121,64c0,0,-50,41,-75,102c0,0,-26,60,-25,137c0,0,0,67,21,115c0,0,21,47,57,82c0,0,35,35,83,59c0,0,47,23,100,45c0,0,-31,36,-52,69c0,0,-22,31,-36,64c0,0,-15,32,-21,65c0,0,-7,33,-7,73c0,0,0,50,19,92c0,0,19,40,59,70c0,0,38,29,95,47c0,0,57,15,134,15c0,0,74,0,129,-17c0,0,53,-17,91,-47c0,0,35,-30,54,-69c0,0,18,-41,18,-84c0,0,0,-47,-14,-83c0,0,-15,-38,-43,-69c0,0,-29,-33,-72,-60c0,0,-45,-28,-104,-55c0,0,3,-6,12,-11L811,383c0,0,12,53,13,106c0,0,0,50,0,94v67h337V570h-24c0,0,-26,0,-49,-3c0,0,-25,-4,-46,-13c0,0,-21,-12,-36,-32c0,0,-18,-21,-27,-56c0,0,-12,-42,-27,-90c0,0,-17,-49,-40,-98L1065,119c0,0,20,-24,52,-30c0,0,28,-8,67,-8c2,0,4,0,6,0h14V0H901L796,112c0,0,-28,-28,-63,-52c0,0,-36,-23,-77,-39C656,21,614,4,566,-4c0,0,-46,-10,-101,-10Z" 
id="f2_1c"
transform="scale(0.001,-0.001)" />

<path d="M43,0V81h64c0,0,16,0,31,4c0,0,14,3,25,13c0,0,9,10,16,30c0,0,5,19,6,53V910c0,0,-1,32,-6,52c0,0,-7,19,-16,30c0,0,-11,10,-25,14c0,0,-15,3,-31,3H43v82H570v-82H506c0,0,-17,0,-31,-3c0,0,-15,-4,-25,-14c0,0,-11,-11,-17,-30c0,0,-6,-20,-6,-52V181c0,0,0,-34,6,-53c0,0,6,-20,17,-30c0,0,10,-10,25,-13c0,0,14,-4,31,-4h64V0Z" 
id="f2_u"
transform="scale(0.001,-0.001)" />

<path d="M535,95c0,0,77,0,110,77c0,0,32,77,33,233c0,0,-1,152,-33,234c0,0,-34,81,-109,81c0,0,-46,0,-76,-20c0,0,-30,-22,-48,-61c0,0,-18,-40,-26,-98c0,0,-8,-60,-7,-134c0,0,-1,-80,7,-138c0,0,8,-59,26,-97c0,0,17,-40,48,-58c0,0,29,-19,75,-19ZM20,-366v81H38c0,0,16,0,37,4c0,0,18,3,35,13c0,0,15,10,27,30c0,0,9,19,10,53V631c0,0,0,34,-7,56c0,0,-9,21,-22,32c0,0,-15,11,-33,15c0,0,-20,3,-41,4H34v81H333L360,700h7c0,0,16,30,39,54c0,0,21,25,51,43c0,0,27,17,64,27c0,0,36,10,80,10c0,0,75,0,135,-25c0,0,58,-26,97,-77c0,0,39,-53,61,-134c0,0,20,-81,20,-191c0,0,0,-112,-20,-191c0,0,-20,-80,-59,-132C835,84,795,31,739,7c0,0,-56,-25,-129,-25c-1,0,-2,0,-4,0c0,0,-87,0,-141,33c0,0,-55,32,-88,89H367c0,0,3,-35,7,-69c0,0,3,-28,3,-59c0,0,0,-33,0,-56V-185c0,0,0,-34,11,-53c0,0,11,-20,27,-30c0,0,16,-10,36,-13c0,0,18,-4,35,-4h35v-81Z" 
id="f2_v"
transform="scale(0.001,-0.001)" />

<path d="M26,0V81H44c0,0,16,0,37,4c0,0,17,3,35,13c0,0,15,10,26,30c0,0,10,19,11,53V987c0,0,-1,30,-11,49c0,0,-11,18,-27,29c0,0,-17,8,-35,12c0,0,-20,3,-36,3H26v81H385V181c0,0,0,-34,11,-53c0,0,10,-20,27,-30c0,0,16,-10,35,-13c0,0,19,-4,36,-4h18V0Z" 
id="f2_8"
transform="scale(0.001,-0.001)" />

<path d="M31,0V81h3c0,0,25,0,47,4c0,0,21,3,38,14c0,0,16,11,25,32c0,0,9,20,9,55V987c0,0,-1,30,-11,49c0,0,-11,18,-27,29c0,0,-17,8,-35,12c0,0,-20,3,-36,3H26v81H383V909c0,0,0,-30,0,-64c0,0,0,-35,-3,-63c0,0,-4,-35,-7,-67h13c0,0,24,43,50,68c0,0,25,24,54,37c0,0,29,12,62,16c0,0,32,2,68,2c0,0,59,0,106,-17c0,0,47,-17,80,-53c0,0,32,-36,49,-91c0,0,16,-56,17,-133V189c0,0,0,-35,7,-56c0,0,5,-22,18,-33c0,0,12,-12,33,-15c0,0,18,-4,45,-4h4V0H640V503c0,0,-1,48,-6,88c0,0,-7,38,-21,64c0,0,-15,25,-38,40c0,0,-24,14,-57,14c0,0,-38,-1,-64,-20c0,0,-26,-19,-40,-51c0,0,-16,-33,-22,-76c0,0,-7,-44,-7,-90V181c0,0,0,-33,8,-52c0,0,7,-20,22,-30c0,0,13,-11,35,-14c0,0,19,-4,45,-4h5V0Z" 
id="f2_x"
transform="scale(0.001,-0.001)" />

<path d="M17,0V81H31c0,0,1,0,3,0c7,0,28,1,45,6c0,0,20,4,40,15c0,0,17,11,36,30c0,0,18,19,42,47L389,411L197,657c0,0,-33,40,-64,61c0,0,-33,20,-67,20H46v81H526V738h-5c0,0,-26,0,-43,-3c0,0,-17,-5,-27,-10c0,0,-10,-7,-13,-14c0,0,-4,-8,-4,-17c0,0,0,-17,8,-32c0,0,8,-15,27,-38L554,519l73,87c0,0,18,23,28,44c0,0,10,21,10,42c0,0,0,28,-21,37c0,0,-22,9,-58,9h-4v81H935V738H921c0,0,-23,-1,-39,-4c0,0,-19,-5,-35,-15c0,0,-18,-11,-37,-30c0,0,-19,-19,-43,-49L609,448L834,162c0,0,34,-44,65,-62c0,0,28,-19,56,-19c0,0,1,0,1,0h20V0H490V81h9c5,0,91,1,91,50c0,0,0,9,-2,18c0,0,-3,8,-8,21c0,0,-6,11,-18,28c0,0,-12,16,-30,38L445,342L338,210c0,0,-15,-20,-23,-38c0,0,-9,-21,-9,-39c0,0,0,-26,21,-38c0,0,21,-14,74,-14h4V0Z" 
id="f2_1d"
transform="scale(0.001,-0.001)" />

<path d="M435,0V856c0,0,-48,-47,-127,-93c0,0,-79,-46,-142,-69V824c0,0,113,52,197,128c0,0,85,75,120,146h86V0Z" 
id="f3_l"
transform="scale(0.001,-0.001)" />

<path d="M494,385V878L152,385ZM494,0V262H20V385l498,708H628V385H775V262H628V0Z" 
id="f3_o"
transform="scale(0.001,-0.001)" />

<path d="M125,0V1051H268V115H799V0Z" 
id="f0_1c"
transform="scale(0.001,-0.001)" />

<path d="M106,0V620c0,0,0,85,-5,188H228c0,0,6,-138,6,-165h3c0,0,32,103,74,141c0,0,42,38,118,38c0,0,27,0,54,-7V692c0,0,-26,7,-71,7c0,0,-84,0,-128,-72c0,0,-44,-72,-44,-206V0Z" 
id="f0_2e"
transform="scale(0.001,-0.001)" />

<path d="M606,-14c0,0,-164,0,-284,65c0,0,-119,66,-182,189c0,0,-63,123,-63,291c0,0,0,255,137,396c0,0,137,140,386,140c0,0,174,0,283,-59c0,0,109,-59,168,-189L915,779c0,0,-44,90,-123,131c0,0,-79,41,-196,41c0,0,-182,0,-278,-110c0,0,-96,-110,-96,-310c0,0,0,-200,102,-315c0,0,102,-115,282,-115c0,0,103,0,193,31c0,0,89,31,144,85V407H629V526h445V164c0,0,-83,-85,-205,-132c0,0,-121,-46,-263,-46Z" 
id="f0_17"
transform="scale(0.001,-0.001)" />

<path d="M355,-14c0,0,-133,0,-194,65c0,0,-62,66,-62,219V808H234V296c0,0,0,-80,16,-124c0,0,16,-44,50,-64c0,0,34,-19,101,-19c0,0,97,0,153,66c0,0,55,67,55,185V808H744V172c0,0,0,-141,4,-172H621c0,0,0,4,-1,20c0,0,-1,17,-2,38c0,0,-1,21,-3,80h-2C613,138,567,55,506,20c0,0,-61,-34,-151,-34Z" 
id="f0_2h"
transform="scale(0.001,-0.001)" />

<path d="M395,89c0,0,115,0,166,79c0,0,51,79,51,246c0,0,0,160,-51,235c0,0,-51,75,-164,75c0,0,-102,0,-147,-75c0,0,-45,-75,-45,-244c0,0,0,-170,45,-243c0,0,45,-73,145,-73ZM361,-14c0,0,-153,0,-225,102c0,0,-72,103,-72,312c0,0,0,422,297,422c0,0,92,0,153,-33c0,0,61,-34,98,-107h2l-2,90v335H747V166c0,0,0,-126,4,-166H623c0,0,-2,12,-5,55c0,0,-3,44,-3,75h-3c0,0,-37,-78,-98,-111c0,0,-62,-33,-153,-33Z" 
id="f0_20"
transform="scale(0.001,-0.001)" />

<path d="M140,0V163H285V0Z" 
id="f0_i"
transform="scale(0.001,-0.001)" />


</defs>
</svg>