<?xml version="1.0" encoding="UTF-8" standalone="no"?>
<!DOCTYPE svg PUBLIC "-//W3C//DTD SVG 1.1//EN"
"http://www.w3.org/Graphics/SVG/1.1/DTD/svg11.dtd">
<svg viewBox="0 0 909 1286" version="1.1" xmlns="http://www.w3.org/2000/svg" xmlns:xlink="http://www.w3.org/1999/xlink">
<defs>
</defs>
<g fill="#D4D4D4" fill-opacity="0.25" >
<use xlink:href="#f0_1f" transform="matrix(65.1,-65.1,65.1,65.1,142.8,1093.7)" />
<use xlink:href="#f0_2a" transform="matrix(65.1,-65.1,65.1,65.1,220.1,1016.4)" />
<use xlink:href="#f0_28" transform="matrix(65.1,-65.1,65.1,65.1,275.4,961.1)" />
<use xlink:href="#f0_25" transform="matrix(65.1,-65.1,65.1,65.1,297.5,939)" />
<use xlink:href="#f0_2a" transform="matrix(65.1,-65.1,65.1,65.1,319.5,917)" />
<use xlink:href="#f0_21" transform="matrix(65.1,-65.1,65.1,65.1,374.8,861.7)" />
<use xlink:href="#f0_2k" transform="matrix(65.1,-65.1,65.1,65.1,430,806.5)" />
<use xlink:href="#f0_1x" transform="matrix(65.1,-65.1,65.1,65.1,479.7,756.8)" />
<use xlink:href="#f0_29" transform="matrix(65.1,-65.1,65.1,65.1,535,701.5)" />
<use xlink:href="#f0_2c" transform="matrix(65.1,-65.1,65.1,65.1,617.8,618.7)" />
<use xlink:href="#f0_2b" transform="matrix(65.1,-65.1,65.1,65.1,673,563.5)" />
<use xlink:href="#f0_25" transform="matrix(65.1,-65.1,65.1,65.1,728.3,508.2)" />
<use xlink:href="#f0_2a" transform="matrix(65.1,-65.1,65.1,65.1,750.4,486.1)" />
<use xlink:href="#f0_2g" transform="matrix(65.1,-65.1,65.1,65.1,805.6,430.9)" />
</g>
<image preserveAspectRatio="none" x="47" y="113" width="781" height="481" xlink:href="img/1.png" />
<g fill="#000000" >
<use xlink:href="#f1_17" transform="matrix(12,0,0,12,47.4,635.6)" />
<use xlink:href="#f1_7" transform="matrix(12,0,0,12,54.7,635.6)" />
<use xlink:href="#f1_7" transform="matrix(12,0,0,12,61.1,635.6)" />
<use xlink:href="#f1_7" transform="matrix(12,0,0,12,67.6,635.6)" />
<use xlink:href="#f1_19" transform="matrix(12,0,0,12,74,635.6)" />
<use xlink:href="#f2_i" transform="matrix(12,0,0,12,86.1,635.6)" />
<use xlink:href="#f2_c" transform="matrix(12,0,0,12,97.2,635.6)" />
<use xlink:href="#f2_5" transform="matrix(12,0,0,12,105.8,635.6)" />
<use xlink:href="#f2_j" transform="matrix(12,0,0,12,111.6,635.6)" />
<use xlink:href="#f2_e" transform="matrix(12,0,0,12,123.4,635.6)" />
<use xlink:href="#f2_5" transform="matrix(12,0,0,12,132.5,635.6)" />
<use xlink:href="#f2_k" transform="matrix(12,0,0,12,138.3,635.6)" />
<use xlink:href="#f2_g" transform="matrix(12,0,0,12,149.6,635.6)" />
<use xlink:href="#f2_d" transform="matrix(12,0,0,12,155.2,635.6)" />
<use xlink:href="#f2_f" transform="matrix(12,0,0,12,169.8,635.6)" />
<use xlink:href="#f2_l" transform="matrix(12,0,0,12,180.4,635.6)" />
<use xlink:href="#f2_3" transform="matrix(12,0,0,12,191.9,635.6)" />
<use xlink:href="#f2_j" transform="matrix(12,0,0,12,198.6,635.6)" />
<use xlink:href="#f2_8" transform="matrix(12,0,0,12,210.4,635.6)" />
<use xlink:href="#f2_d" transform="matrix(12,0,0,12,221.7,635.6)" />
<use xlink:href="#f2_k" transform="matrix(12,0,0,12,231.5,635.6)" />
<use xlink:href="#f2_d" transform="matrix(12,0,0,12,242.7,635.6)" />
<use xlink:href="#f2_j" transform="matrix(12,0,0,12,252.5,635.6)" />
<use xlink:href="#f2_8" transform="matrix(12,0,0,12,264.4,635.6)" />
<use xlink:href="#f2_d" transform="matrix(12,0,0,12,275.6,635.6)" />
<use xlink:href="#f2_j" transform="matrix(12,0,0,12,285.4,635.6)" />
<use xlink:href="#f2_4" transform="matrix(12,0,0,12,297.2,635.6)" />
<use xlink:href="#f2_1a" transform="matrix(12,0,0,12,308.4,635.6)" />
<use xlink:href="#f2_6" transform="matrix(12,0,0,12,321.3,635.6)" />
<use xlink:href="#f2_6" transform="matrix(12,0,0,12,329.6,635.6)" />
<use xlink:href="#f2_f" transform="matrix(12,0,0,12,337.9,635.6)" />
<use xlink:href="#f2_c" transform="matrix(12,0,0,12,348.4,635.6)" />
<use xlink:href="#f2_4" transform="matrix(12,0,0,12,357,635.6)" />
<use xlink:href="#f2_m" transform="matrix(12,0,0,12,363.5,635.6)" />
<use xlink:href="#f2_d" transform="matrix(12,0,0,12,380.8,635.6)" />
<use xlink:href="#f2_j" transform="matrix(12,0,0,12,390.6,635.6)" />
<use xlink:href="#f2_4" transform="matrix(12,0,0,12,402.4,635.6)" />
<use xlink:href="#f2_13" transform="matrix(12,0,0,12,413.6,635.6)" />
<use xlink:href="#f2_1a" transform="matrix(12,0,0,12,427.5,635.6)" />
<use xlink:href="#f2_e" transform="matrix(12,0,0,12,440.5,635.6)" />
<use xlink:href="#f2_e" transform="matrix(12,0,0,12,449.5,635.6)" />
<use xlink:href="#f2_4" transform="matrix(12,0,0,12,463.3,635.6)" />
<use xlink:href="#f2_f" transform="matrix(12,0,0,12,469.7,635.6)" />
<use xlink:href="#f2_12" transform="matrix(12,0,0,12,485,635.6)" />
<use xlink:href="#f2_9" transform="matrix(12,0,0,12,500.8,635.6)" />
<use xlink:href="#f2_5" transform="matrix(12,0,0,12,512.4,635.6)" />
<use xlink:href="#f2_e" transform="matrix(12,0,0,12,518.3,635.6)" />
<use xlink:href="#f2_9" transform="matrix(12,0,0,12,527.3,635.6)" />
<use xlink:href="#f2_14" transform="matrix(12,0,0,12,538.9,635.6)" />
<use xlink:href="#f2_5" transform="matrix(12,0,0,12,548.3,635.6)" />
<use xlink:href="#f2_j" transform="matrix(12,0,0,12,554.1,635.6)" />
<use xlink:href="#f2_4" transform="matrix(12,0,0,12,570.7,635.6)" />
<use xlink:href="#f2_9" transform="matrix(12,0,0,12,577.1,635.6)" />
<use xlink:href="#f2_d" transform="matrix(12,0,0,12,588.7,635.6)" />
<use xlink:href="#f2_5" transform="matrix(12,0,0,12,603.3,635.6)" />
<use xlink:href="#f2_j" transform="matrix(12,0,0,12,609.2,635.6)" />
<use xlink:href="#f2_9" transform="matrix(12,0,0,12,621,635.6)" />
<use xlink:href="#f2_d" transform="matrix(12,0,0,12,632.6,635.6)" />
<use xlink:href="#f2_c" transform="matrix(12,0,0,12,642.4,635.6)" />
<use xlink:href="#f2_5" transform="matrix(12,0,0,12,651,635.6)" />
<use xlink:href="#f2_4" transform="matrix(12,0,0,12,656.9,635.6)" />
<use xlink:href="#f2_7" transform="matrix(12,0,0,12,663.3,635.6)" />
<use xlink:href="#f2_j" transform="matrix(12,0,0,12,673.6,635.6)" />
<use xlink:href="#f2_e" transform="matrix(12,0,0,12,685.4,635.6)" />
<use xlink:href="#f2_d" transform="matrix(12,0,0,12,694.5,635.6)" />
<use xlink:href="#f2_f" transform="matrix(12,0,0,12,709,635.6)" />
<use xlink:href="#f2_l" transform="matrix(12,0,0,12,719.6,635.6)" />
<use xlink:href="#f2_e" transform="matrix(12,0,0,12,731.1,635.6)" />
<use xlink:href="#f2_f" transform="matrix(12,0,0,12,740.1,635.6)" />
<use xlink:href="#f2_j" transform="matrix(12,0,0,12,750.7,635.6)" />
<use xlink:href="#f2_4" transform="matrix(12,0,0,12,762.5,635.6)" />
<use xlink:href="#f2_c" transform="matrix(12,0,0,12,769,635.6)" />
<use xlink:href="#f2_7" transform="matrix(12,0,0,12,777.6,635.6)" />
<use xlink:href="#f2_6" transform="matrix(12,0,0,12,787.9,635.6)" />
<use xlink:href="#f2_4" transform="matrix(12,0,0,12,796.2,635.6)" />
<use xlink:href="#f2_5" transform="matrix(12,0,0,12,802.6,635.6)" />
<use xlink:href="#f2_j" transform="matrix(12,0,0,12,808.5,635.6)" />
<use xlink:href="#f2_t" transform="matrix(12,0,0,12,820.3,635.6)" />
<use xlink:href="#f2_e" transform="matrix(12,0,0,12,47.4,667.6)" />
<use xlink:href="#f2_9" transform="matrix(12,0,0,12,56.4,667.6)" />
<use xlink:href="#f2_7" transform="matrix(12,0,0,12,68,667.6)" />
<use xlink:href="#f2_c" transform="matrix(12,0,0,12,78.3,667.6)" />
<use xlink:href="#f2_7" transform="matrix(12,0,0,12,86.9,667.6)" />
<use xlink:href="#f2_e" transform="matrix(12,0,0,12,97.3,667.6)" />
<use xlink:href="#f2_4" transform="matrix(12,0,0,12,106.3,667.6)" />
<use xlink:href="#f2_d" transform="matrix(12,0,0,12,112.7,667.6)" />
<use xlink:href="#f2_c" transform="matrix(12,0,0,12,122.5,667.6)" />
<use xlink:href="#f2_6" transform="matrix(12,0,0,12,131.2,667.6)" />
<use xlink:href="#f2_4" transform="matrix(12,0,0,12,144.2,667.6)" />
<use xlink:href="#f2_9" transform="matrix(12,0,0,12,150.6,667.6)" />
<use xlink:href="#f2_d" transform="matrix(12,0,0,12,162.2,667.6)" />
<use xlink:href="#f2_l" transform="matrix(12,0,0,12,176.8,667.6)" />
<use xlink:href="#f2_7" transform="matrix(12,0,0,12,183.5,667.6)" />
<use xlink:href="#f2_e" transform="matrix(12,0,0,12,193.9,667.6)" />
<use xlink:href="#f2_4" transform="matrix(12,0,0,12,202.9,667.6)" />
<use xlink:href="#f2_f" transform="matrix(12,0,0,12,209.3,667.6)" />
<use xlink:href="#f2_c" transform="matrix(12,0,0,12,219.9,667.6)" />
<use xlink:href="#f2_6" transform="matrix(12,0,0,12,228.5,667.6)" />
<use xlink:href="#f2_f" transform="matrix(12,0,0,12,241.5,667.6)" />
<use xlink:href="#f2_l" transform="matrix(12,0,0,12,252.1,667.6)" />
<use xlink:href="#f2_d" transform="matrix(12,0,0,12,263.6,667.6)" />
<use xlink:href="#f2_7" transform="matrix(12,0,0,12,273.4,667.6)" />
<use xlink:href="#f2_e" transform="matrix(12,0,0,12,283.7,667.6)" />
<use xlink:href="#f2_9" transform="matrix(12,0,0,12,292.8,667.6)" />
<use xlink:href="#f2_k" transform="matrix(12,0,0,12,309.1,667.6)" />
<use xlink:href="#f2_7" transform="matrix(12,0,0,12,320.4,667.6)" />
<use xlink:href="#f2_5" transform="matrix(12,0,0,12,330.7,667.6)" />
<use xlink:href="#f2_c" transform="matrix(12,0,0,12,336.5,667.6)" />
<use xlink:href="#f2_f" transform="matrix(12,0,0,12,349.9,667.6)" />
<use xlink:href="#f2_l" transform="matrix(12,0,0,12,360.5,667.6)" />
<use xlink:href="#f2_e" transform="matrix(12,0,0,12,372,667.6)" />
<use xlink:href="#f2_9" transform="matrix(12,0,0,12,381,667.6)" />
<use xlink:href="#f2_7" transform="matrix(12,0,0,12,392.6,667.6)" />
<use xlink:href="#f2_c" transform="matrix(12,0,0,12,403,667.6)" />
<use xlink:href="#f2_7" transform="matrix(12,0,0,12,411.6,667.6)" />
<use xlink:href="#f2_e" transform="matrix(12,0,0,12,421.9,667.6)" />
<use xlink:href="#f2_4" transform="matrix(12,0,0,12,430.9,667.6)" />
<use xlink:href="#f2_d" transform="matrix(12,0,0,12,437.4,667.6)" />
<use xlink:href="#f2_c" transform="matrix(12,0,0,12,447.2,667.6)" />
<use xlink:href="#f2_6" transform="matrix(12,0,0,12,460.5,667.6)" />
<use xlink:href="#f2_d" transform="matrix(12,0,0,12,468.8,667.6)" />
<use xlink:href="#f2_t" transform="matrix(12,0,0,12,478.6,667.6)" />
<use xlink:href="#f2_c" transform="matrix(12,0,0,12,488.5,667.6)" />
<use xlink:href="#f2_d" transform="matrix(12,0,0,12,497.1,667.6)" />
<use xlink:href="#f2_t" transform="matrix(12,0,0,12,506.9,667.6)" />
<use xlink:href="#f2_7" transform="matrix(12,0,0,12,516.7,667.6)" />
<use xlink:href="#f2_4" transform="matrix(12,0,0,12,527.1,667.6)" />
<use xlink:href="#f2_d" transform="matrix(12,0,0,12,533.5,667.6)" />
<use xlink:href="#f2_5" transform="matrix(12,0,0,12,548.1,667.6)" />
<use xlink:href="#f2_j" transform="matrix(12,0,0,12,553.9,667.6)" />
<use xlink:href="#f2_8" transform="matrix(12,0,0,12,565.7,667.6)" />
<use xlink:href="#f2_d" transform="matrix(12,0,0,12,577,667.6)" />
<use xlink:href="#f2_k" transform="matrix(12,0,0,12,586.8,667.6)" />
<use xlink:href="#f2_d" transform="matrix(12,0,0,12,598,667.6)" />
<use xlink:href="#f2_j" transform="matrix(12,0,0,12,607.8,667.6)" />
<use xlink:href="#f2_8" transform="matrix(12,0,0,12,619.7,667.6)" />
<use xlink:href="#f2_d" transform="matrix(12,0,0,12,630.9,667.6)" />
<use xlink:href="#f2_j" transform="matrix(12,0,0,12,640.7,667.6)" />
<use xlink:href="#f2_4" transform="matrix(12,0,0,12,652.5,667.6)" />
<use xlink:href="#f2_g" transform="matrix(12,0,0,12,659,667.6)" />
<use xlink:href="#f2_a" transform="matrix(12,0,0,12,664.7,667.6)" />
<use xlink:href="#f2_f" transform="matrix(12,0,0,12,679.7,667.6)" />
<use xlink:href="#f2_l" transform="matrix(12,0,0,12,690.3,667.6)" />
<use xlink:href="#f2_4" transform="matrix(12,0,0,12,701.8,667.6)" />
<use xlink:href="#f2_9" transform="matrix(12,0,0,12,708.3,667.6)" />
<use xlink:href="#f2_d" transform="matrix(12,0,0,12,719.9,667.6)" />
<use xlink:href="#f2_l" transform="matrix(12,0,0,12,734.5,667.6)" />
<use xlink:href="#f2_7" transform="matrix(12,0,0,12,741.2,667.6)" />
<use xlink:href="#f2_e" transform="matrix(12,0,0,12,751.5,667.6)" />
<use xlink:href="#f2_4" transform="matrix(12,0,0,12,760.5,667.6)" />
<use xlink:href="#f2_f" transform="matrix(12,0,0,12,767,667.6)" />
<use xlink:href="#f2_c" transform="matrix(12,0,0,12,777.6,667.6)" />
<use xlink:href="#f2_6" transform="matrix(12,0,0,12,786.2,667.6)" />
<use xlink:href="#f2_f" transform="matrix(12,0,0,12,799.2,667.6)" />
<use xlink:href="#f2_l" transform="matrix(12,0,0,12,809.8,667.6)" />
<use xlink:href="#f2_4" transform="matrix(12,0,0,12,821.3,667.6)" />
<use xlink:href="#f2_9" transform="matrix(12,0,0,12,827.7,667.6)" />
<use xlink:href="#f2_d" transform="matrix(12,0,0,12,839.3,667.6)" />
<use xlink:href="#f2_f" transform="matrix(12,0,0,12,47.4,699.7)" />
<use xlink:href="#f2_4" transform="matrix(12,0,0,12,57.9,699.7)" />
<use xlink:href="#f2_9" transform="matrix(12,0,0,12,64.4,699.7)" />
<use xlink:href="#f2_d" transform="matrix(12,0,0,12,76,699.7)" />
<use xlink:href="#f2_c" transform="matrix(12,0,0,12,85.8,699.7)" />
<use xlink:href="#f2_k" transform="matrix(12,0,0,12,99.2,699.7)" />
<use xlink:href="#f2_7" transform="matrix(12,0,0,12,110.4,699.7)" />
<use xlink:href="#f2_5" transform="matrix(12,0,0,12,120.7,699.7)" />
<use xlink:href="#f2_c" transform="matrix(12,0,0,12,126.6,699.7)" />
<use xlink:href="#f2_f" transform="matrix(12,0,0,12,140,699.7)" />
<use xlink:href="#f2_l" transform="matrix(12,0,0,12,150.5,699.7)" />
<use xlink:href="#f2_e" transform="matrix(12,0,0,12,162,699.7)" />
<use xlink:href="#f2_9" transform="matrix(12,0,0,12,171.1,699.7)" />
<use xlink:href="#f2_7" transform="matrix(12,0,0,12,182.7,699.7)" />
<use xlink:href="#f2_c" transform="matrix(12,0,0,12,193,699.7)" />
<use xlink:href="#f2_7" transform="matrix(12,0,0,12,201.6,699.7)" />
<use xlink:href="#f2_e" transform="matrix(12,0,0,12,211.9,699.7)" />
<use xlink:href="#f2_4" transform="matrix(12,0,0,12,221,699.7)" />
<use xlink:href="#f2_d" transform="matrix(12,0,0,12,227.4,699.7)" />
<use xlink:href="#f2_c" transform="matrix(12,0,0,12,237.2,699.7)" />
<use xlink:href="#f2_6" transform="matrix(12,0,0,12,245.8,699.7)" />
<use xlink:href="#f2_n" transform="matrix(12,0,0,12,254.1,699.7)" />
<use xlink:href="#f3_l" transform="matrix(8,0,0,8,785.4,1275.3)" />
<use xlink:href="#f3_s" transform="matrix(8,0,0,8,792.2,1275.3)" />
</g>
<g fill="#0080FF" fill-opacity="0.5" >
<use xlink:href="#f0_1c" transform="matrix(47.4,0,0,47.4,227.3,1273.3)" />
<use xlink:href="#f0_21" transform="matrix(47.4,0,0,47.4,267.5,1273.3)" />
<use xlink:href="#f0_1x" transform="matrix(47.4,0,0,47.4,307.8,1273.3)" />
<use xlink:href="#f0_2e" transform="matrix(47.4,0,0,47.4,348,1273.3)" />
<use xlink:href="#f0_2a" transform="matrix(47.4,0,0,47.4,372.1,1273.3)" />
<use xlink:href="#f0_17" transform="matrix(47.4,0,0,47.4,412.3,1273.3)" />
<use xlink:href="#f0_2h" transform="matrix(47.4,0,0,47.4,468.7,1273.3)" />
<use xlink:href="#f0_25" transform="matrix(47.4,0,0,47.4,508.9,1273.3)" />
<use xlink:href="#f0_20" transform="matrix(47.4,0,0,47.4,525,1273.3)" />
<use xlink:href="#f0_21" transform="matrix(47.4,0,0,47.4,565.2,1273.3)" />
<use xlink:href="#f0_i" transform="matrix(47.4,0,0,47.4,605.5,1273.3)" />
<use xlink:href="#f0_25" transform="matrix(47.4,0,0,47.4,625.6,1273.3)" />
<use xlink:href="#f0_2a" transform="matrix(47.4,0,0,47.4,641.7,1273.3)" />
</g>
<defs>
<path d="M593,101c0,0,182,0,279,112c0,0,98,113,98,318c0,0,0,196,-98,308c0,0,-98,112,-277,112c0,0,-181,0,-279,-110c0,0,-99,-111,-99,-310c0,0,0,-198,100,-314c0,0,99,-116,276,-116Zm0,-115c0,0,-162,0,-279,65c0,0,-118,66,-180,190c0,0,-62,124,-62,290c0,0,0,252,138,394c0,0,138,142,385,142c0,0,160,0,278,-64c0,0,118,-64,180,-185c0,0,62,-122,62,-287c0,0,0,-165,-63,-289c0,0,-63,-124,-181,-190c0,0,-118,-66,-278,-66Z" 
id="f0_1f"
transform="scale(0.001,-0.001)" />

<path d="M106,0V635c0,0,0,141,-5,173H228c0,0,1,-4,2,-21c0,0,1,-16,2,-37c0,0,1,-22,2,-81h2c0,0,47,84,108,119c0,0,60,34,151,34c0,0,132,0,194,-66c0,0,61,-66,61,-218V0H615V512c0,0,0,80,-15,124c0,0,-16,44,-50,63c0,0,-35,20,-101,20c0,0,-97,0,-153,-67c0,0,-56,-66,-56,-184V0Z" 
id="f0_2a"
transform="scale(0.001,-0.001)" />

<path d="M103,0V1107H237V0Z" 
id="f0_28"
transform="scale(0.001,-0.001)" />

<path d="M102,0V808H236V0Zm0,979v128H236V979Z" 
id="f0_25"
transform="scale(0.001,-0.001)" />

<path d="M643,478c0,0,-11,128,-65,187c0,0,-54,59,-154,59c0,0,-98,0,-155,-66c0,0,-57,-65,-62,-180ZM431,-14c0,0,-179,0,-272,106c0,0,-94,107,-94,317c0,0,0,200,94,307c0,0,93,106,267,106c0,0,356,0,356,-429V375H206c0,0,0,-138,57,-213c0,0,58,-75,168,-75c0,0,87,0,140,35c0,0,53,35,71,88L760,177c0,0,-72,-191,-329,-191Z" 
id="f0_21"
transform="scale(0.001,-0.001)" />

<path d="M17,0L304,415L31,808H179L380,493L580,808H730L457,417L747,0H598L380,331L162,0Z" 
id="f0_2k"
transform="scale(0.001,-0.001)" />

<path d="M339,87c0,0,74,0,132,34c0,0,57,33,90,91c0,0,34,59,34,121v66L448,396c0,0,-95,-2,-144,-19c0,0,-49,-18,-75,-55c0,0,-26,-38,-26,-98c0,0,0,-65,35,-101c0,0,36,-36,101,-36ZM309,-14c0,0,-122,0,-183,64c0,0,-61,64,-61,176c0,0,0,125,82,192c0,0,83,67,266,72l182,3v44c0,0,0,98,-42,141c0,0,-42,43,-132,43c0,0,-90,0,-131,-31c0,0,-41,-31,-49,-98L101,604c0,0,34,218,323,218c0,0,153,0,229,-70c0,0,77,-69,77,-202V202c0,0,0,-59,16,-90c0,0,16,-30,60,-30c0,0,19,0,44,5V4C850,4,799,-7,746,-7c0,0,-75,0,-109,38c0,0,-33,40,-38,124h-4C595,155,543,62,475,24c0,0,-68,-38,-166,-38Z" 
id="f0_1x"
transform="scale(0.001,-0.001)" />

<path d="M106,0V635c0,0,0,141,-5,173H228c0,0,1,-4,2,-21c0,0,1,-16,2,-37c0,0,1,-22,2,-81h2c0,0,44,86,100,120c0,0,56,33,136,33c0,0,92,0,145,-36c0,0,54,-37,75,-117h2c0,0,42,82,101,117c0,0,59,36,143,36c0,0,123,0,178,-66c0,0,56,-67,56,-218V0H1039V512c0,0,0,117,-32,162c0,0,-32,45,-116,45c0,0,-88,0,-136,-66c0,0,-49,-65,-49,-185V0H573V512c0,0,0,117,-32,162c0,0,-32,45,-116,45c0,0,-86,0,-136,-66c0,0,-50,-66,-50,-185V0Z" 
id="f0_29"
transform="scale(0.001,-0.001)" />

<path d="M453,84c0,0,100,0,146,74c0,0,46,73,46,247c0,0,0,169,-46,241c0,0,-45,73,-145,73c0,0,-80,0,-125,-34c0,0,-45,-34,-68,-105c0,0,-24,-71,-24,-186c0,0,0,-159,51,-234c0,0,51,-76,165,-76ZM103,-316V643c0,0,0,124,-5,165H228c0,0,1,-3,3,-22c0,0,1,-18,3,-56c0,0,2,-38,2,-52h3c0,0,36,75,94,110c0,0,59,34,156,34c0,0,149,0,223,-100c0,0,74,-100,74,-314c0,0,0,-422,-297,-422c0,0,-187,0,-251,140h-4c0,0,3,-6,3,-126V-316Z" 
id="f0_2c"
transform="scale(0.001,-0.001)" />

<path d="M420,84c0,0,121,0,173,78c0,0,52,77,52,243c0,0,0,167,-50,243c0,0,-50,76,-167,76c0,0,-118,0,-170,-78c0,0,-53,-77,-53,-241c0,0,0,-160,52,-241c0,0,52,-80,163,-80Zm1,-98c0,0,-176,0,-267,107c0,0,-90,108,-90,312c0,0,0,417,362,417c0,0,185,0,272,-102c0,0,88,-101,88,-315c0,0,0,-212,-94,-316C692,89,599,-14,421,-14Z" 
id="f0_2b"
transform="scale(0.001,-0.001)" />

<path d="M278,-11c0,0,-162,0,-162,182V710H23v98h99l39,181h90V808H400V710H251V200c0,0,0,-58,19,-82c0,0,19,-23,66,-23c0,0,27,0,77,10V6c0,0,-66,-17,-135,-17Z" 
id="f0_2g"
transform="scale(0.001,-0.001)" />

<path d="M562,-212c0,0,-127,52,-217,121c0,0,-91,68,-147,155c0,0,-58,87,-84,193c0,0,-27,104,-27,229c0,0,0,123,27,228c0,0,26,104,84,191c0,0,56,86,147,155c0,0,90,68,217,119v-96c0,0,-70,-47,-115,-112c0,0,-45,-66,-70,-143c0,0,-26,-78,-35,-164c0,0,-10,-88,-9,-178c0,0,-1,-91,9,-179c0,0,9,-88,35,-165c0,0,25,-79,70,-143c0,0,45,-67,115,-113v-98Z" 
id="f1_17"
transform="scale(0.001,-0.001)" />

<path d="M26,0V81H44c0,0,16,0,37,4c0,0,17,3,35,13c0,0,15,10,26,30c0,0,10,19,11,53V645c0,0,-1,29,-11,49c0,0,-11,18,-27,28c0,0,-17,9,-35,13c0,0,-20,3,-36,3H26v81H385V181c0,0,0,-34,11,-53c0,0,10,-20,27,-30c0,0,16,-10,35,-13c0,0,19,-4,36,-4h18V0ZM261,956c0,0,-28,0,-51,7c0,0,-24,7,-41,20c0,0,-18,13,-27,35c0,0,-11,20,-11,49c0,0,0,28,11,50c0,0,9,21,27,34c0,0,17,12,41,19c0,0,23,6,51,6c0,0,25,0,50,-6c0,0,23,-7,42,-19c0,0,18,-13,29,-34c0,0,10,-22,10,-50c0,0,0,-29,-10,-49c0,0,-11,-22,-29,-35c0,0,-19,-13,-42,-20c0,0,-25,-7,-50,-7Z" 
id="f1_7"
transform="scale(0.001,-0.001)" />

<path d="M49,-212v98c0,0,70,46,116,113c0,0,44,64,70,143c0,0,24,77,34,165c0,0,9,88,9,179c0,0,0,90,-9,178c0,0,-10,86,-34,164c0,0,-26,77,-70,143c0,0,-46,65,-116,112v96c0,0,127,-51,218,-119c0,0,90,-69,148,-155c0,0,56,-87,83,-191c0,0,25,-105,26,-228c0,0,-1,-125,-26,-229c0,0,-27,-106,-83,-193c0,0,-58,-87,-148,-155c0,0,-91,-69,-218,-121Z" 
id="f1_19"
transform="scale(0.001,-0.001)" />

<path d="M439,497c0,0,69,0,118,15c0,0,49,14,81,47c0,0,31,32,46,83c0,0,14,50,14,123c0,0,-1,64,-12,112c0,0,-14,47,-41,79c0,0,-29,31,-74,47c0,0,-46,14,-110,15H357V497ZM58,0V64H78c0,0,25,0,49,4c0,0,22,3,39,16c0,0,17,11,27,32c0,0,10,21,10,58V923c0,0,0,33,-10,54c0,0,-11,20,-27,32c0,0,-18,11,-40,14c0,0,-24,3,-48,3H58v65H487c0,0,96,-1,167,-22c0,0,70,-22,117,-63c0,0,46,-42,70,-101c0,0,22,-60,22,-134c0,0,0,-68,-21,-130c0,0,-22,-63,-70,-111c0,0,-48,-49,-127,-76c0,0,-79,-30,-191,-30H357V166c0,0,0,-33,11,-53c0,0,9,-22,27,-32c0,0,16,-10,40,-13c0,0,22,-4,48,-4h50V0Z" 
id="f2_i"
transform="scale(0.001,-0.001)" />

<path d="M51,0V64h4c0,0,26,0,49,4c0,0,23,3,40,16c0,0,16,11,27,32c0,0,10,21,10,58V650c0,0,0,33,-10,55c0,0,-11,20,-28,31c0,0,-17,11,-39,15c0,0,-24,3,-49,4H51v64H286L315,668h7c0,0,14,34,31,65c0,0,15,29,39,53c0,0,22,22,56,35c0,0,33,12,84,13c0,0,83,0,124,-29c0,0,41,-30,41,-82c0,0,0,-24,-8,-44c0,0,-9,-20,-25,-34c0,0,-17,-15,-44,-23c0,0,-27,-8,-66,-8c0,0,0,63,-18,92c0,0,-18,27,-62,27c0,0,-29,0,-51,-15c0,0,-22,-18,-39,-43c0,0,-17,-27,-28,-61c0,0,-13,-35,-19,-70c0,0,-8,-37,-10,-73c0,0,-4,-35,-3,-64V166c0,0,0,-33,10,-53c0,0,10,-22,27,-32c0,0,16,-10,40,-13c0,0,22,-4,48,-4h43V0Z" 
id="f2_c"
transform="scale(0.001,-0.001)" />

<path d="M35,0V64H55c0,0,25,0,49,4c0,0,22,3,39,13c0,0,17,10,28,32c0,0,10,20,10,53V650c0,0,0,33,-10,55c0,0,-11,20,-28,31c0,0,-17,11,-39,15c0,0,-24,3,-49,4H51v64H324V174c0,0,0,-37,10,-58c0,0,10,-21,27,-32c0,0,16,-13,40,-16c0,0,22,-4,48,-4h20V0ZM249,972c-1,0,-2,0,-3,0c0,0,-1,0,-2,0c-5,0,-20,0,-32,5c0,0,-16,5,-28,16c0,0,-12,11,-18,29c0,0,-7,18,-7,45c0,0,0,27,7,45c0,0,6,17,18,29c0,0,12,11,28,15c0,0,15,5,34,5c0,0,18,0,34,-5c0,0,15,-4,27,-15c0,0,11,-12,19,-29c0,0,7,-18,7,-45c0,0,0,-27,-7,-45c0,0,-8,-18,-19,-29c0,0,-12,-11,-27,-16c0,0,-14,-5,-31,-5Z" 
id="f2_5"
transform="scale(0.001,-0.001)" />

<path d="M43,0V64H55c0,0,26,0,49,4c0,0,23,3,40,16c0,0,16,11,27,32c0,0,10,21,10,58V650c0,0,0,33,-10,55c0,0,-11,20,-28,31c0,0,-17,11,-39,15c0,0,-24,3,-49,4H51v64H298L318,695h7c0,0,23,42,51,70c0,0,25,27,56,43c0,0,29,14,63,21c0,0,32,5,69,5c0,0,60,-1,108,-17c0,0,47,-18,81,-54c0,0,32,-37,50,-93c0,0,17,-58,18,-135V174c0,0,0,-37,9,-58c0,0,7,-21,23,-32c0,0,16,-13,38,-16c0,0,21,-4,47,-4h5V0H677V527c0,0,0,50,-9,89c0,0,-10,39,-29,66c0,0,-20,26,-52,41c0,0,-33,13,-78,13c0,0,-53,0,-88,-20c0,0,-36,-20,-57,-54c0,0,-22,-35,-31,-79c0,0,-10,-45,-9,-94V166c0,0,0,-33,10,-53c0,0,10,-22,27,-32c0,0,16,-10,40,-13c0,0,22,-4,48,-4h5V0Z" 
id="f2_j"
transform="scale(0.001,-0.001)" />

<path d="M433,-14c0,0,-77,0,-141,23c0,0,-64,23,-110,74c0,0,-46,50,-72,130c0,0,-26,79,-26,192c0,0,0,122,26,205c0,0,26,82,72,132c0,0,46,49,108,71c0,0,61,21,134,21c0,0,47,0,96,-9c0,0,47,-10,85,-29c0,0,38,-19,62,-49c0,0,23,-30,24,-69c0,0,0,-54,-35,-74c0,0,-35,-22,-102,-22c0,0,0,35,-6,68c0,0,-6,32,-20,56c0,0,-15,24,-39,38c0,0,-26,14,-65,14c0,0,-44,0,-79,-16c0,0,-35,-18,-61,-57c0,0,-26,-40,-39,-108c0,0,-13,-69,-13,-170c0,0,-1,-164,54,-243c0,0,54,-80,177,-80h1c6,0,72,1,123,30c0,0,52,30,79,77c0,0,11,-10,19,-24c0,0,7,-15,7,-36c0,0,0,-27,-16,-52c0,0,-17,-26,-49,-47C627,32,594,10,546,0c0,0,-48,-14,-113,-14Z" 
id="f2_e"
transform="scale(0.001,-0.001)" />

<path d="M518,83c0,0,50,0,86,21c0,0,35,21,58,63c0,0,23,41,33,104c0,0,10,61,11,142c0,0,-1,80,-11,142c0,0,-10,60,-33,101c0,0,-23,40,-58,60c0,0,-38,20,-88,20c0,0,-60,0,-99,-19c0,0,-41,-20,-64,-61c0,0,-24,-40,-34,-101c0,0,-10,-62,-10,-144c0,0,0,-80,10,-141c0,0,10,-62,35,-103c0,0,23,-42,64,-63c0,0,39,-21,100,-21ZM28,-366v64H40c0,0,25,0,49,4c0,0,22,3,39,16c0,0,17,11,27,33c0,0,10,21,10,58V650c0,0,0,33,-10,55c0,0,-11,20,-27,31c0,0,-18,11,-40,15c0,0,-24,3,-48,4H20v64H287L303,681h6c0,0,16,34,39,63c0,0,21,28,50,49c0,0,27,19,64,31c0,0,36,9,80,10c0,0,75,0,134,-25c0,0,58,-26,98,-76c0,0,38,-53,60,-132c0,0,20,-80,20,-190c0,0,0,-111,-20,-191c0,0,-22,-80,-60,-133c0,0,-40,-53,-98,-77c0,0,-57,-24,-131,-24c-1,0,-2,0,-3,0h-2c-8,0,-46,1,-77,10c0,0,-37,8,-65,26c0,0,-29,18,-50,43c0,0,-23,24,-39,54h-3c0,0,0,-39,0,-73c0,0,0,-15,0,-30c0,0,0,-15,0,-28c0,0,0,-14,0,-24c0,0,0,-11,0,-17V-199c0,0,0,-33,10,-54c0,0,10,-21,28,-31c0,0,17,-11,41,-14c0,0,23,-4,49,-4h5v-64Z" 
id="f2_k"
transform="scale(0.001,-0.001)" />

<path d="M20,0V64H40c0,0,25,0,49,4c0,0,22,3,39,16c0,0,17,11,27,32c0,0,10,21,10,58V993c0,0,0,33,-10,54c0,0,-11,21,-27,32c0,0,-18,11,-40,15c0,0,-24,3,-48,3H20v64H309V174c0,0,-1,-37,10,-58c0,0,9,-21,26,-32c0,0,17,-13,41,-16c0,0,22,-4,48,-4h20V0Z" 
id="f2_g"
transform="scale(0.001,-0.001)" />

<path d="M586,481c0,0,0,60,-9,111c0,0,-9,50,-29,85c0,0,-19,36,-51,56c0,0,-33,18,-79,19c0,0,-87,-1,-133,-69c0,0,-46,-69,-46,-202ZM439,-14c0,0,-83,0,-149,27c0,0,-66,28,-112,82c0,0,-46,53,-69,132c0,0,-25,77,-25,177c0,0,0,213,88,322c0,0,88,108,251,108c0,0,73,0,133,-23c0,0,58,-24,100,-69c0,0,41,-46,63,-114c0,0,21,-69,22,-159V399H233c0,0,0,-84,15,-143c0,0,15,-61,44,-99c0,0,28,-40,71,-57c0,0,40,-19,93,-19c1,0,2,0,4,0c0,0,38,0,73,9c0,0,33,9,62,24c0,0,26,14,48,34c0,0,21,18,35,40c0,0,10,-4,20,-19c0,0,9,-15,9,-33c0,0,0,-24,-16,-49c0,0,-17,-27,-50,-50C641,37,607,14,557,0c0,0,-50,-14,-118,-14Z" 
id="f2_d"
transform="scale(0.001,-0.001)" />

<path d="M442,64c0,0,56,0,97,23c0,0,38,22,64,66c0,0,24,43,36,108c0,0,9,65,10,150c0,0,0,85,-11,149c0,0,-11,64,-36,108c0,0,-25,42,-64,64c0,0,-41,21,-98,21c0,0,-58,0,-97,-21c0,0,-39,-22,-64,-64c0,0,-25,-44,-36,-108c0,0,-11,-64,-11,-149c0,0,0,-85,11,-150c0,0,11,-65,37,-108c0,0,24,-44,65,-66c0,0,38,-23,97,-23Zm-3,-78c0,0,-83,0,-149,25c0,0,-66,26,-111,79c0,0,-47,52,-70,134c0,0,-25,79,-25,187c0,0,0,213,91,319c0,0,90,103,268,104c0,0,82,0,149,-25c0,0,65,-26,111,-79c0,0,46,-53,71,-132c0,0,23,-80,23,-187c0,0,0,-216,-91,-321C706,90,614,-14,439,-14Z" 
id="f2_f"
transform="scale(0.001,-0.001)" />

<path d="M41,0V64H61c0,0,26,0,49,4c0,0,23,3,40,16c0,0,16,11,27,32c0,0,9,21,9,58V747H47v72H186v76c0,0,0,68,19,121c0,0,19,52,54,88c0,0,34,35,85,55c0,0,50,17,113,17c0,0,58,0,100,-7c0,0,41,-8,67,-22c0,0,24,-15,35,-34c0,0,12,-20,12,-43c0,0,0,-22,-9,-37c0,0,-11,-17,-26,-27c0,0,-18,-11,-40,-16c0,0,-24,-6,-51,-6c0,0,0,23,-4,45c0,0,-6,21,-17,39c0,0,-12,17,-31,28c0,0,-19,10,-48,10c0,0,-34,0,-55,-12c0,0,-22,-13,-36,-38c0,0,-13,-26,-18,-62c0,0,-6,-37,-6,-85V819H545V747H330V174c0,0,0,-37,10,-58c0,0,10,-21,27,-32c0,0,16,-13,40,-16c0,0,22,-4,48,-4h58V0Z" 
id="f2_l"
transform="scale(0.001,-0.001)" />

<path d="M58,0V64H78c0,0,25,0,49,4c0,0,22,3,39,16c0,0,17,11,27,32c0,0,10,21,10,58V917c0,0,0,36,-10,57c0,0,-10,21,-27,34c0,0,-17,11,-39,15c0,0,-24,3,-49,3H58v65H503v-65H483c0,0,-26,0,-49,-3c0,0,-24,-4,-39,-15c0,0,-18,-13,-27,-34c0,0,-11,-21,-11,-57V174c0,0,0,-37,11,-58c0,0,9,-21,27,-32c0,0,15,-13,39,-16c0,0,23,-4,49,-4h20V0Z" 
id="f2_3"
transform="scale(0.001,-0.001)" />

<path d="M421,83c0,0,59,0,100,20c0,0,39,19,65,60c0,0,23,39,34,101c0,0,10,61,10,144c0,0,0,79,-10,141c0,0,-11,61,-34,103c0,0,-25,41,-65,63c0,0,-41,21,-101,21c0,0,-51,0,-86,-21c0,0,-36,-23,-58,-64c0,0,-24,-42,-34,-103c0,0,-10,-62,-10,-141c0,0,0,-163,44,-244c0,0,43,-80,145,-80ZM395,-14c-8,0,-78,1,-133,24c0,0,-59,24,-98,77c0,0,-39,52,-60,132c0,0,-20,79,-20,189c0,0,0,110,20,191c0,0,21,80,60,133c0,0,39,51,98,77c0,0,58,25,133,25c0,0,44,0,80,-10c0,0,36,-10,65,-27c0,0,28,-18,51,-43c0,0,21,-24,39,-54h4c0,0,0,36,0,70c0,0,0,27,0,57c0,0,0,27,0,41V993c0,0,-1,33,-10,54c0,0,-11,21,-29,32c0,0,-18,11,-41,15c0,0,-24,3,-49,3H492v64H773V168c0,0,0,-34,10,-54c0,0,10,-21,27,-32c0,0,17,-11,40,-14c0,0,22,-4,48,-4h13V0H652L636,137h-6c0,0,-18,-35,-39,-62c0,0,-23,-29,-51,-48C540,27,512,6,476,-3c0,0,-36,-11,-81,-11Z" 
id="f2_8"
transform="scale(0.001,-0.001)" />

<path d="M367,-14c0,0,-59,0,-100,13c0,0,-42,10,-69,38c0,0,-27,27,-39,73c0,0,-14,45,-14,112V732H29v61c0,0,28,0,61,11c0,0,32,11,58,37c0,0,26,28,43,68c0,0,15,38,28,98h70V819H489V732H289V217c0,0,-1,-78,32,-115c0,0,30,-36,83,-36c0,0,1,0,1,0c0,0,2,0,6,0c9,0,28,0,45,3c0,0,23,3,47,7V9C503,9,492,4,477,0c0,0,-15,-3,-33,-6c0,0,-20,-5,-39,-6c0,0,-20,-2,-38,-2Z" 
id="f2_4"
transform="scale(0.001,-0.001)" />

<path d="M683,442L588,709c0,0,-25,68,-43,127c0,0,-21,59,-33,114c0,0,-6,-28,-12,-53c0,0,-8,-26,-16,-53c0,0,-9,-26,-19,-55c0,0,-10,-31,-23,-66L338,442ZM0,0V64H29c0,0,1,0,3,0c6,0,23,1,35,5c0,0,16,5,28,18c0,0,12,13,25,37c0,0,11,22,25,60l339,907H604L949,145c0,0,8,-23,19,-39c0,0,8,-16,21,-25c0,0,12,-10,29,-13c0,0,17,-4,39,-4h20V0H657V64h35c0,0,92,0,92,73c0,0,0,12,-3,26c0,0,-4,14,-10,31L710,365H309L251,204c0,0,-8,-18,-11,-35c0,0,-4,-18,-4,-30c0,0,0,-40,26,-57c0,0,24,-18,76,-18h35V0Z" 
id="f2_1a"
transform="scale(0.001,-0.001)" />

<path d="M321,-14c0,0,-58,0,-104,11c0,0,-48,7,-80,29c0,0,-33,20,-50,51c0,0,-18,30,-18,70c0,0,0,30,10,51c0,0,10,20,25,33c0,0,14,11,31,17c0,0,16,4,30,4c0,0,0,-41,8,-75c0,0,8,-36,28,-61c0,0,18,-28,51,-42c0,0,31,-16,78,-16c0,0,41,0,72,11c0,0,31,9,53,28c0,0,21,18,32,44c0,0,11,25,11,56c0,0,0,28,-8,49c0,0,-9,20,-30,38c0,0,-21,17,-58,37c0,0,-37,18,-92,42c0,0,-59,26,-102,51c0,0,-45,23,-72,52c0,0,-29,28,-43,65c0,0,-15,35,-14,86c0,0,-1,52,21,92c0,0,20,40,58,68c0,0,38,26,91,41c0,0,52,15,118,15c0,0,54,0,96,-12c0,0,41,-11,70,-30c0,0,28,-19,43,-44c0,0,14,-27,14,-55c0,0,-1,-42,-28,-66c0,0,-29,-25,-80,-25c-1,0,-2,0,-2,0c0,0,0,76,-32,119c0,0,-32,42,-100,42c0,0,-39,0,-66,-9c0,0,-28,-9,-45,-25c0,0,-18,-17,-26,-39c0,0,-8,-22,-8,-49c0,0,0,-29,10,-50c0,0,10,-22,34,-39c0,0,22,-18,59,-35c0,0,36,-17,86,-38c0,0,60,-26,104,-50c0,0,43,-24,72,-54c0,0,27,-29,41,-65c0,0,13,-37,13,-84c0,0,-1,-60,-21,-105c0,0,-23,-45,-62,-74C539,46,499,14,445,0c0,0,-56,-14,-124,-14Z" 
id="f2_6"
transform="scale(0.001,-0.001)" />

<path d="M43,0V64H63c0,0,25,0,47,4c0,0,21,3,38,16c0,0,15,11,24,32c0,0,8,21,9,58V650c0,0,0,33,-9,55c0,0,-9,20,-25,31c0,0,-16,11,-37,15c0,0,-22,3,-47,4H58v64H298L318,695h7c0,0,23,42,49,70c0,0,25,27,54,43c0,0,28,14,61,21c0,0,31,5,67,5c0,0,36,0,71,-7c0,0,33,-9,62,-24c0,0,28,-17,52,-43c0,0,21,-27,36,-65h13c0,0,23,42,50,70c0,0,27,27,57,43c0,0,30,14,64,21c0,0,32,5,68,5c0,0,59,-1,105,-17c0,0,45,-18,78,-54c0,0,32,-37,49,-93c0,0,17,-58,18,-135V174c0,0,0,-37,9,-58c0,0,9,-21,24,-32c0,0,16,-13,37,-16c0,0,21,-4,47,-4h5V0H1135V527c0,0,0,50,-8,89c0,0,-9,39,-27,66c0,0,-21,26,-50,41c0,0,-32,13,-75,13c0,0,-48,0,-80,-18c0,0,-33,-19,-53,-50c0,0,-21,-31,-28,-72c0,0,-9,-42,-9,-87V174c0,0,0,-37,9,-58c0,0,9,-21,24,-32c0,0,16,-13,38,-16c0,0,21,-4,47,-4h4V0H662V527c0,0,-1,50,-9,89c0,0,-8,39,-27,66c0,0,-20,26,-50,41c0,0,-31,13,-75,13c0,0,-50,0,-83,-20c0,0,-35,-20,-55,-54c0,0,-22,-35,-30,-79c0,0,-9,-45,-9,-94V166c0,0,0,-33,10,-53c0,0,10,-22,27,-32c0,0,16,-10,40,-13c0,0,22,-4,48,-4h5V0Z" 
id="f2_m"
transform="scale(0.001,-0.001)" />

<path d="M-6,365v90H771V365Z" 
id="f2_13"
transform="scale(0.001,-0.001)" />

<path d="M315,0L115,674c0,0,-9,23,-19,39c0,0,-10,15,-22,26c0,0,-13,8,-29,12c0,0,-17,3,-39,4H1v64H379V755H359c0,0,-46,0,-69,-13c0,0,-24,-15,-23,-51c0,0,0,-13,5,-31c0,0,3,-18,8,-35L351,369c0,0,8,-29,16,-61c0,0,7,-33,16,-65c0,0,6,-33,12,-61c0,0,6,-29,10,-48h5c0,0,3,19,10,46c0,0,5,24,15,55c0,0,7,29,18,60c0,0,9,30,19,58L631,815h96L880,362c0,0,9,-29,20,-59c0,0,9,-33,18,-63c0,0,9,-31,17,-59c0,0,7,-28,11,-47h4c0,0,7,38,22,94c0,0,14,55,38,129l76,247c0,0,5,18,11,41c0,0,3,21,3,35c0,0,0,38,-24,57c0,0,-26,18,-77,18H988v64h327V755h-19c0,0,-23,0,-39,-5c0,0,-17,-5,-29,-17c0,0,-14,-13,-25,-36c0,0,-11,-24,-22,-61L984,0H862L680,538L652,639L436,0Z" 
id="f2_12"
transform="scale(0.001,-0.001)" />

<path d="M28,0V64H40c0,0,25,0,49,4c0,0,22,3,39,16c0,0,17,11,27,32c0,0,10,21,10,58V993c0,0,0,33,-10,54c0,0,-11,21,-27,32c0,0,-18,11,-40,15c0,0,-24,3,-48,3H28v64H308V825c0,0,0,-22,0,-43c0,0,-1,-24,-4,-43c0,0,0,-23,0,-44h6c0,0,68,139,225,139c0,0,65,-1,115,-17c0,0,50,-18,85,-54c0,0,34,-37,52,-93c0,0,18,-58,18,-135V174c0,0,0,-37,9,-58c0,0,9,-21,24,-32c0,0,16,-13,38,-16c0,0,21,-4,47,-4h4V0H662V527c0,0,0,50,-9,89c0,0,-10,39,-29,66c0,0,-20,26,-52,41c0,0,-33,13,-78,13c0,0,-49,0,-82,-17c0,0,-35,-18,-58,-50c0,0,-24,-33,-34,-78c0,0,-11,-46,-11,-102V166c0,0,0,-33,10,-53c0,0,10,-22,27,-32c0,0,17,-10,40,-13c0,0,22,-4,48,-4h5V0Z" 
id="f2_9"
transform="scale(0.001,-0.001)" />

<path d="M46,-234v64c0,0,74,23,110,58c0,0,34,35,35,79c0,0,-1,15,-8,26c0,0,-9,8,-21,17c0,0,-13,6,-27,15c0,0,-15,7,-27,18c0,0,-13,9,-21,26c0,0,-8,14,-8,38c0,0,0,43,29,67c0,0,28,23,71,23c0,0,23,-1,45,-8c0,0,20,-9,37,-26c0,0,16,-17,26,-41c0,0,9,-27,9,-58c0,0,0,-48,-13,-93c0,0,-14,-46,-44,-84c0,0,-30,-40,-77,-70c0,0,-49,-31,-116,-51Z" 
id="f2_14"
transform="scale(0.001,-0.001)" />

<path d="M348,79c0,0,46,0,85,15c0,0,36,14,64,42c0,0,25,27,40,66c0,0,14,39,14,87V412H454c0,0,-65,0,-109,-14c0,0,-44,-13,-70,-36c0,0,-27,-25,-39,-59c0,0,-12,-35,-11,-80c0,0,0,-73,30,-108c0,0,29,-36,93,-36ZM313,-14c0,0,-50,0,-94,14c0,0,-44,14,-75,45c0,0,-33,30,-50,77c0,0,-18,47,-18,109c0,0,0,123,87,182c0,0,85,59,261,60H551v93c0,0,0,42,-4,78c0,0,-5,34,-20,60c0,0,-15,26,-42,40c0,0,-28,14,-75,14c0,0,-44,0,-71,-12c0,0,-29,-13,-43,-35c0,0,-16,-23,-21,-53c0,0,-6,-31,-5,-66c0,0,-64,0,-96,21c0,0,-34,21,-34,75c0,0,0,39,22,67c0,0,21,28,60,45c0,0,36,17,87,26c0,0,49,7,107,8c0,0,69,0,122,-13c0,0,52,-15,87,-46c0,0,34,-31,53,-81c0,0,17,-52,17,-124V174c0,0,0,-33,5,-53c0,0,6,-22,17,-34c0,0,10,-12,30,-18c0,0,15,-5,38,-5c2,0,3,0,5,0h4V0H588L564,131H551c0,0,-24,-33,-46,-59c0,0,-22,-27,-49,-46C456,26,429,6,395,-3c0,0,-35,-11,-82,-11Z" 
id="f2_7"
transform="scale(0.001,-0.001)" />

<path d="M351,-291c2,0,3,0,5,0c0,0,1,0,2,0c12,0,84,1,134,15c0,0,52,13,84,38c0,0,31,23,44,58c0,0,12,34,13,74c0,0,0,35,-10,59c0,0,-11,22,-30,35c0,0,-20,12,-49,17c0,0,-29,5,-67,5H327c0,0,-33,0,-62,-5c0,0,-31,-5,-54,-20c0,0,-24,-17,-38,-44c0,0,-15,-29,-14,-74c0,0,0,-34,9,-63c0,0,9,-29,31,-50c0,0,23,-22,61,-33c0,0,35,-12,91,-12Zm34,658c0,0,1,0,1,0c0,0,37,0,64,11c0,0,24,11,42,35c0,0,15,22,23,59c0,0,7,35,7,86c0,0,0,103,-31,152c0,0,-31,49,-106,49c0,0,-74,0,-105,-50c0,0,-33,-50,-32,-153c0,0,0,-98,32,-143c0,0,32,-46,105,-46ZM353,-366c-8,0,-162,1,-239,59c0,0,-80,59,-79,164c0,0,0,45,16,78c0,0,15,34,42,58c0,0,26,22,61,38c0,0,34,14,72,21c0,0,-16,7,-31,18c0,0,-14,11,-26,27c0,0,-13,16,-20,36c0,0,-8,20,-7,45c0,0,0,45,24,79c0,0,23,32,76,64c0,0,-33,13,-58,37c0,0,-27,23,-44,54c0,0,-18,30,-27,65c0,0,-10,36,-9,74c0,0,0,66,18,119c0,0,18,51,53,89c0,0,36,36,90,56c0,0,53,18,126,19c0,0,28,-1,54,-4c0,0,26,-4,50,-11c0,0,22,-8,41,-16c0,0,18,-9,29,-19c0,0,12,12,27,27c0,0,14,14,33,27c0,0,19,12,41,20c0,0,21,7,47,8c0,0,23,-1,40,-6c0,0,17,-7,28,-17c0,0,11,-11,17,-25c0,0,5,-15,5,-31c0,0,0,-17,-4,-31c0,0,-6,-15,-15,-25c0,0,-10,-12,-25,-17c0,0,-15,-7,-36,-7c0,0,0,9,-2,18c0,0,-3,9,-8,17c0,0,-6,7,-16,13c0,0,-10,4,-25,4c0,0,-19,0,-35,-4c0,0,-16,-5,-31,-14c0,0,26,-33,44,-76c0,0,16,-44,16,-109c0,0,-1,-57,-17,-105c0,0,-17,-48,-51,-82c0,0,-35,-36,-86,-56c0,0,-52,-19,-121,-19H348c0,0,-11,0,-21,1c0,0,-10,1,-15,3c0,0,-15,-9,-29,-17c0,0,-13,-9,-23,-20c0,0,-11,-11,-16,-25c0,0,-6,-15,-6,-32c0,0,-1,-19,7,-29c0,0,7,-12,20,-18c0,0,12,-7,30,-8c0,0,17,-2,38,-2H506c0,0,68,-1,116,-17c0,0,48,-17,78,-47c0,0,30,-32,44,-73c0,0,14,-41,14,-90c0,0,-1,-67,-24,-119c0,0,-25,-53,-75,-89c0,0,-50,-38,-126,-58c0,0,-77,-20,-180,-20Z" 
id="f2_t"
transform="scale(0.001,-0.001)" />

<path d="M58,-366v72h1c8,0,79,1,133,23c0,0,55,24,97,64c0,0,39,40,68,95c0,0,26,55,45,118L119,674c0,0,-10,23,-20,39c0,0,-10,14,-21,25c0,0,-13,9,-29,13c0,0,-17,3,-39,4H6v64H373V755h-4c0,0,-47,0,-69,-18c0,0,-24,-18,-23,-56c0,0,-1,-13,3,-25c0,0,2,-14,9,-31L401,353c0,0,9,-27,22,-57c0,0,11,-31,22,-61c0,0,9,-31,18,-57c0,0,7,-28,11,-47h4c0,0,8,34,23,82c0,0,14,48,34,103L637,614c0,0,7,19,11,36c0,0,2,16,2,30c0,0,0,38,-24,57c0,0,-26,18,-76,18h-5v64H863V755h-4c0,0,-23,0,-38,-5c0,0,-18,-6,-30,-18c0,0,-13,-14,-24,-37c0,0,-11,-24,-25,-59L510,-5c0,0,-27,-74,-50,-130c0,0,-25,-56,-50,-95c0,0,-27,-41,-57,-67c0,0,-32,-26,-71,-41c0,0,-40,-17,-91,-22c0,0,-51,-6,-119,-6Z" 
id="f2_a"
transform="scale(0.001,-0.001)" />

<path d="M222,-9c-1,0,-2,0,-3,0c0,0,-1,0,-3,0c-6,0,-22,0,-35,5c0,0,-18,4,-30,16c0,0,-14,12,-21,32c0,0,-8,20,-8,49c0,0,0,30,8,50c0,0,7,19,21,32c0,0,12,11,30,17c0,0,17,5,38,5c0,0,18,0,37,-5c0,0,16,-6,30,-17c0,0,12,-13,21,-32c0,0,8,-20,8,-50c0,0,0,-29,-8,-49c0,0,-9,-20,-21,-32C286,12,272,0,256,-4c0,0,-17,-5,-34,-5Z" 
id="f2_n"
transform="scale(0.001,-0.001)" />

<path d="M435,0V856c0,0,-48,-47,-127,-93c0,0,-79,-46,-142,-69V824c0,0,113,52,197,128c0,0,85,75,120,146h86V0Z" 
id="f3_l"
transform="scale(0.001,-0.001)" />

<path d="M423,92c0,0,97,0,159,62c0,0,62,62,62,157c0,0,0,97,-64,160c0,0,-64,64,-161,64c0,0,-96,0,-158,-63c0,0,-62,-62,-62,-156c0,0,0,-58,27,-111c0,0,27,-54,81,-84c0,0,54,-29,116,-29Zm0,552c0,0,78,0,127,49c0,0,49,49,49,120c0,0,0,74,-50,124c0,0,-51,51,-128,51c0,0,-77,0,-127,-50c0,0,-51,-49,-51,-118c0,0,0,-77,50,-126c0,0,50,-50,130,-50ZM422,-18c0,0,-162,0,-261,95c0,0,-99,96,-99,239c0,0,0,107,54,179c0,0,54,72,154,98c0,0,-84,31,-124,87c0,0,-40,57,-40,136c0,0,0,119,85,201c0,0,86,81,229,81c0,0,143,0,230,-83c0,0,87,-83,87,-203c0,0,0,-76,-40,-132c0,0,-39,-56,-121,-87c0,0,101,-33,154,-106c0,0,52,-73,52,-174c0,0,0,-141,-99,-236c0,0,-99,-95,-261,-95Z" 
id="f3_s"
transform="scale(0.001,-0.001)" />

<path d="M125,0V1051H268V115H799V0Z" 
id="f0_1c"
transform="scale(0.001,-0.001)" />

<path d="M106,0V620c0,0,0,85,-5,188H228c0,0,6,-138,6,-165h3c0,0,32,103,74,141c0,0,42,38,118,38c0,0,27,0,54,-7V692c0,0,-26,7,-71,7c0,0,-84,0,-128,-72c0,0,-44,-72,-44,-206V0Z" 
id="f0_2e"
transform="scale(0.001,-0.001)" />

<path d="M606,-14c0,0,-164,0,-284,65c0,0,-119,66,-182,189c0,0,-63,123,-63,291c0,0,0,255,137,396c0,0,137,140,386,140c0,0,174,0,283,-59c0,0,109,-59,168,-189L915,779c0,0,-44,90,-123,131c0,0,-79,41,-196,41c0,0,-182,0,-278,-110c0,0,-96,-110,-96,-310c0,0,0,-200,102,-315c0,0,102,-115,282,-115c0,0,103,0,193,31c0,0,89,31,144,85V407H629V526h445V164c0,0,-83,-85,-205,-132c0,0,-121,-46,-263,-46Z" 
id="f0_17"
transform="scale(0.001,-0.001)" />

<path d="M355,-14c0,0,-133,0,-194,65c0,0,-62,66,-62,219V808H234V296c0,0,0,-80,16,-124c0,0,16,-44,50,-64c0,0,34,-19,101,-19c0,0,97,0,153,66c0,0,55,67,55,185V808H744V172c0,0,0,-141,4,-172H621c0,0,0,4,-1,20c0,0,-1,17,-2,38c0,0,-1,21,-3,80h-2C613,138,567,55,506,20c0,0,-61,-34,-151,-34Z" 
id="f0_2h"
transform="scale(0.001,-0.001)" />

<path d="M395,89c0,0,115,0,166,79c0,0,51,79,51,246c0,0,0,160,-51,235c0,0,-51,75,-164,75c0,0,-102,0,-147,-75c0,0,-45,-75,-45,-244c0,0,0,-170,45,-243c0,0,45,-73,145,-73ZM361,-14c0,0,-153,0,-225,102c0,0,-72,103,-72,312c0,0,0,422,297,422c0,0,92,0,153,-33c0,0,61,-34,98,-107h2l-2,90v335H747V166c0,0,0,-126,4,-166H623c0,0,-2,12,-5,55c0,0,-3,44,-3,75h-3c0,0,-37,-78,-98,-111c0,0,-62,-33,-153,-33Z" 
id="f0_20"
transform="scale(0.001,-0.001)" />

<path d="M140,0V163H285V0Z" 
id="f0_i"
transform="scale(0.001,-0.001)" />


</defs>
</svg>